<svg width="1024" height="753" viewBox="0 0 1024 753" fill="none" xmlns="http://www.w3.org/2000/svg">
<g opacity="0.2" filter="url(#filter0_f_175_198)">
<ellipse cx="523.5" cy="72" rx="670.5" ry="350" fill="#35875D"/>
</g>
<path d="M44.0349 308C45.5302 308 46.6622 308.63 47.4308 309.891C48.2134 311.138 48.6047 312.953 48.6047 315.336C48.6047 317.719 48.2134 319.541 47.4308 320.802C46.6622 322.063 45.5302 322.693 44.0349 322.693C42.5536 322.693 41.4216 322.063 40.639 320.802C39.8564 319.541 39.4651 317.719 39.4651 315.336C39.4651 312.967 39.8564 311.152 40.639 309.891C41.4216 308.63 42.5536 308 44.0349 308ZM40.9534 315.336C40.9534 317.026 41.1072 318.35 41.4146 319.306L46.0683 310.099C45.5791 309.448 44.9013 309.122 44.0349 309.122C43.0706 309.122 42.316 309.635 41.771 310.66C41.2259 311.672 40.9534 313.23 40.9534 315.336ZM44.0349 321.55C45.0131 321.55 45.7748 321.044 46.3198 320.033C46.8648 319.008 47.1373 317.442 47.1373 315.336C47.1373 313.549 46.9627 312.163 46.6133 311.18L41.9596 320.469C42.4627 321.19 43.1545 321.55 44.0349 321.55Z" fill="url(#paint0_linear_175_198)" fill-opacity="0.6"/>
<path d="M45.2926 345.135H48.3741V346.236H40.3874V345.135H43.9511V333.455L40.5551 335.471L39.9682 334.536L44.1607 331.959H45.2926V345.135Z" fill="url(#paint1_linear_175_198)" fill-opacity="0.6"/>
<path d="M44.0349 355.502C45.5302 355.502 46.6622 356.133 47.4308 357.393C48.2134 358.64 48.6047 360.455 48.6047 362.838C48.6047 365.221 48.2134 367.043 47.4308 368.304C46.6622 369.565 45.5302 370.195 44.0349 370.195C42.5536 370.195 41.4216 369.565 40.639 368.304C39.8564 367.043 39.4651 365.221 39.4651 362.838C39.4651 360.469 39.8564 358.654 40.639 357.393C41.4216 356.133 42.5536 355.502 44.0349 355.502ZM40.9534 362.838C40.9534 364.529 41.1072 365.852 41.4146 366.808L46.0683 357.601C45.5791 356.95 44.9013 356.624 44.0349 356.624C43.0706 356.624 42.316 357.137 41.771 358.162C41.2259 359.174 40.9534 360.732 40.9534 362.838ZM44.0349 369.052C45.0131 369.052 45.7748 368.546 46.3198 367.535C46.8648 366.51 47.1373 364.944 47.1373 362.838C47.1373 361.051 46.9627 359.665 46.6133 358.682L41.9596 367.971C42.4627 368.692 43.1545 369.052 44.0349 369.052Z" fill="url(#paint2_linear_175_198)" fill-opacity="0.6"/>
<path d="M45.2926 392.637H48.3741V393.738H40.3874V392.637H43.9511V380.957L40.5551 382.973L39.9682 382.038L44.1607 379.461H45.2926V392.637Z" fill="url(#paint3_linear_175_198)" fill-opacity="0.6"/>
<path d="M45.2926 416.388H48.3741V417.489H40.3874V416.388H43.9511V404.708L40.5551 406.724L39.9682 405.789L44.1607 403.212H45.2926V416.388Z" fill="url(#paint4_linear_175_198)" fill-opacity="0.6"/>
<path d="M44.0349 426.755C45.5302 426.755 46.6622 427.386 47.4308 428.646C48.2134 429.893 48.6047 431.708 48.6047 434.091C48.6047 436.474 48.2134 438.296 47.4308 439.557C46.6622 440.818 45.5302 441.448 44.0349 441.448C42.5536 441.448 41.4216 440.818 40.639 439.557C39.8564 438.296 39.4651 436.474 39.4651 434.091C39.4651 431.722 39.8564 429.907 40.639 428.646C41.4216 427.386 42.5536 426.755 44.0349 426.755ZM40.9534 434.091C40.9534 435.782 41.1072 437.105 41.4146 438.061L46.0683 428.854C45.5791 428.203 44.9013 427.878 44.0349 427.878C43.0706 427.878 42.316 428.39 41.771 429.415C41.2259 430.427 40.9534 431.985 40.9534 434.091ZM44.0349 440.305C45.0131 440.305 45.7748 439.8 46.3198 438.788C46.8648 437.763 47.1373 436.197 47.1373 434.091C47.1373 432.304 46.9627 430.919 46.6133 429.935L41.9596 439.225C42.4627 439.945 43.1545 440.305 44.0349 440.305Z" fill="url(#paint5_linear_175_198)" fill-opacity="0.6"/>
<path d="M45.2926 463.89H48.3741V464.992H40.3874V463.89H43.9511V452.21L40.5551 454.226L39.9682 453.291L44.1607 450.714H45.2926V463.89Z" fill="url(#paint6_linear_175_198)" fill-opacity="0.6"/>
<path d="M44.0349 474.257C45.5302 474.257 46.6622 474.888 47.4308 476.149C48.2134 477.396 48.6047 479.211 48.6047 481.594C48.6047 483.977 48.2134 485.798 47.4308 487.059C46.6622 488.32 45.5302 488.95 44.0349 488.95C42.5536 488.95 41.4216 488.32 40.639 487.059C39.8564 485.798 39.4651 483.977 39.4651 481.594C39.4651 479.224 39.8564 477.409 40.639 476.149C41.4216 474.888 42.5536 474.257 44.0349 474.257ZM40.9534 481.594C40.9534 483.284 41.1072 484.607 41.4146 485.563L46.0683 476.356C45.5791 475.705 44.9013 475.38 44.0349 475.38C43.0706 475.38 42.316 475.892 41.771 476.918C41.2259 477.929 40.9534 479.488 40.9534 481.594ZM44.0349 487.807C45.0131 487.807 45.7748 487.302 46.3198 486.29C46.8648 485.265 47.1373 483.699 47.1373 481.594C47.1373 479.806 46.9627 478.421 46.6133 477.437L41.9596 486.727C42.4627 487.447 43.1545 487.807 44.0349 487.807Z" fill="url(#paint7_linear_175_198)" fill-opacity="0.6"/>
<path d="M44.0349 498.008C45.5302 498.008 46.6622 498.639 47.4308 499.9C48.2134 501.147 48.6047 502.962 48.6047 505.345C48.6047 507.728 48.2134 509.549 47.4308 510.81C46.6622 512.071 45.5302 512.701 44.0349 512.701C42.5536 512.701 41.4216 512.071 40.639 510.81C39.8564 509.549 39.4651 507.728 39.4651 505.345C39.4651 502.975 39.8564 501.16 40.639 499.9C41.4216 498.639 42.5536 498.008 44.0349 498.008ZM40.9534 505.345C40.9534 507.035 41.1072 508.358 41.4146 509.314L46.0683 500.107C45.5791 499.456 44.9013 499.131 44.0349 499.131C43.0706 499.131 42.316 499.643 41.771 500.669C41.2259 501.68 40.9534 503.239 40.9534 505.345ZM44.0349 511.558C45.0131 511.558 45.7748 511.053 46.3198 510.041C46.8648 509.016 47.1373 507.451 47.1373 505.345C47.1373 503.557 46.9627 502.172 46.6133 501.188L41.9596 510.478C42.4627 511.198 43.1545 511.558 44.0349 511.558Z" fill="url(#paint8_linear_175_198)" fill-opacity="0.6"/>
<path d="M45.2926 535.143H48.3741V536.245H40.3874V535.143H43.9511V523.464L40.5551 525.48L39.9682 524.544L44.1607 521.967H45.2926V535.143Z" fill="url(#paint9_linear_175_198)" fill-opacity="0.6"/>
<path d="M44.0349 545.511C45.5302 545.511 46.6622 546.141 47.4308 547.402C48.2134 548.649 48.6047 550.464 48.6047 552.847C48.6047 555.23 48.2134 557.052 47.4308 558.312C46.6622 559.573 45.5302 560.204 44.0349 560.204C42.5536 560.204 41.4216 559.573 40.639 558.312C39.8564 557.052 39.4651 555.23 39.4651 552.847C39.4651 550.478 39.8564 548.663 40.639 547.402C41.4216 546.141 42.5536 545.511 44.0349 545.511ZM40.9534 552.847C40.9534 554.537 41.1072 555.86 41.4146 556.816L46.0683 547.61C45.5791 546.958 44.9013 546.633 44.0349 546.633C43.0706 546.633 42.316 547.145 41.771 548.171C41.2259 549.182 40.9534 550.741 40.9534 552.847ZM44.0349 559.061C45.0131 559.061 45.7748 558.555 46.3198 557.543C46.8648 556.518 47.1373 554.953 47.1373 552.847C47.1373 551.059 46.9627 549.674 46.6133 548.69L41.9596 557.98C42.4627 558.7 43.1545 559.061 44.0349 559.061Z" fill="url(#paint10_linear_175_198)" fill-opacity="0.6"/>
<path d="M45.2926 582.645H48.3741V583.747H40.3874V582.645H43.9511V570.966L40.5551 572.982L39.9682 572.046L44.1607 569.469H45.2926V582.645Z" fill="url(#paint11_linear_175_198)" fill-opacity="0.6"/>
<path d="M45.2926 606.396H48.3741V607.498H40.3874V606.396H43.9511V594.717L40.5551 596.733L39.9682 595.798L44.1607 593.221H45.2926V606.396Z" fill="url(#paint12_linear_175_198)" fill-opacity="0.6"/>
<path d="M82.9651 355.502C84.4604 355.502 85.5924 356.133 86.361 357.393C87.1436 358.64 87.5349 360.455 87.5349 362.838C87.5349 365.221 87.1436 367.043 86.361 368.304C85.5924 369.565 84.4604 370.195 82.9651 370.195C81.4838 370.195 80.3518 369.565 79.5692 368.304C78.7866 367.043 78.3953 365.221 78.3953 362.838C78.3953 360.469 78.7866 358.654 79.5692 357.393C80.3518 356.133 81.4838 355.502 82.9651 355.502ZM79.8836 362.838C79.8836 364.529 80.0374 365.852 80.3448 366.808L84.9985 357.601C84.5093 356.95 83.8315 356.624 82.9651 356.624C82.0008 356.624 81.2462 357.137 80.7012 358.162C80.1561 359.174 79.8836 360.732 79.8836 362.838ZM82.9651 369.052C83.9433 369.052 84.705 368.546 85.25 367.535C85.795 366.51 86.0675 364.944 86.0675 362.838C86.0675 361.051 85.8928 359.665 85.5435 358.682L80.8898 367.971C81.3929 368.692 82.0847 369.052 82.9651 369.052Z" fill="url(#paint13_linear_175_198)" fill-opacity="0.6"/>
<path d="M84.2228 392.637H87.3043V393.738H79.3176V392.637H82.8812V380.957L79.4853 382.973L78.8984 382.038L83.0909 379.461H84.2228V392.637Z" fill="url(#paint14_linear_175_198)" fill-opacity="0.6"/>
<path d="M82.9651 403.004C84.4604 403.004 85.5924 403.635 86.361 404.895C87.1436 406.142 87.5349 407.957 87.5349 410.34C87.5349 412.723 87.1436 414.545 86.361 415.806C85.5924 417.067 84.4604 417.697 82.9651 417.697C81.4838 417.697 80.3518 417.067 79.5692 415.806C78.7866 414.545 78.3953 412.723 78.3953 410.34C78.3953 407.971 78.7866 406.156 79.5692 404.895C80.3518 403.635 81.4838 403.004 82.9651 403.004ZM79.8836 410.34C79.8836 412.031 80.0374 413.354 80.3448 414.31L84.9985 405.103C84.5093 404.452 83.8315 404.126 82.9651 404.126C82.0008 404.126 81.2462 404.639 80.7012 405.664C80.1561 406.676 79.8836 408.234 79.8836 410.34ZM82.9651 416.554C83.9433 416.554 84.705 416.049 85.25 415.037C85.795 414.012 86.0675 412.446 86.0675 410.34C86.0675 408.553 85.8928 407.168 85.5435 406.184L80.8898 415.474C81.3929 416.194 82.0847 416.554 82.9651 416.554Z" fill="url(#paint15_linear_175_198)" fill-opacity="0.6"/>
<path d="M82.9651 426.755C84.4604 426.755 85.5924 427.386 86.361 428.646C87.1436 429.893 87.5349 431.708 87.5349 434.091C87.5349 436.474 87.1436 438.296 86.361 439.557C85.5924 440.818 84.4604 441.448 82.9651 441.448C81.4838 441.448 80.3518 440.818 79.5692 439.557C78.7866 438.296 78.3953 436.474 78.3953 434.091C78.3953 431.722 78.7866 429.907 79.5692 428.646C80.3518 427.386 81.4838 426.755 82.9651 426.755ZM79.8836 434.091C79.8836 435.782 80.0374 437.105 80.3448 438.061L84.9985 428.854C84.5093 428.203 83.8315 427.878 82.9651 427.878C82.0008 427.878 81.2462 428.39 80.7012 429.415C80.1561 430.427 79.8836 431.985 79.8836 434.091ZM82.9651 440.305C83.9433 440.305 84.705 439.8 85.25 438.788C85.795 437.763 86.0675 436.197 86.0675 434.091C86.0675 432.304 85.8928 430.919 85.5435 429.935L80.8898 439.225C81.3929 439.945 82.0847 440.305 82.9651 440.305Z" fill="url(#paint16_linear_175_198)" fill-opacity="0.6"/>
<path d="M84.2228 463.89H87.3043V464.992H79.3176V463.89H82.8812V452.21L79.4853 454.226L78.8984 453.291L83.0909 450.714H84.2228V463.89Z" fill="url(#paint17_linear_175_198)" fill-opacity="0.6"/>
<path d="M82.9651 474.257C84.4604 474.257 85.5924 474.888 86.361 476.149C87.1436 477.396 87.5349 479.211 87.5349 481.594C87.5349 483.977 87.1436 485.798 86.361 487.059C85.5924 488.32 84.4604 488.95 82.9651 488.95C81.4838 488.95 80.3518 488.32 79.5692 487.059C78.7866 485.798 78.3953 483.977 78.3953 481.594C78.3953 479.224 78.7866 477.409 79.5692 476.149C80.3518 474.888 81.4838 474.257 82.9651 474.257ZM79.8836 481.594C79.8836 483.284 80.0374 484.607 80.3448 485.563L84.9985 476.356C84.5093 475.705 83.8315 475.38 82.9651 475.38C82.0008 475.38 81.2462 475.892 80.7012 476.918C80.1561 477.929 79.8836 479.488 79.8836 481.594ZM82.9651 487.807C83.9433 487.807 84.705 487.302 85.25 486.29C85.795 485.265 86.0675 483.699 86.0675 481.594C86.0675 479.806 85.8928 478.421 85.5435 477.437L80.8898 486.727C81.3929 487.447 82.0847 487.807 82.9651 487.807Z" fill="url(#paint18_linear_175_198)" fill-opacity="0.6"/>
<path d="M84.2228 511.392H87.3043V512.494H79.3176V511.392H82.8812V499.713L79.4853 501.728L78.8984 500.793L83.0909 498.216H84.2228V511.392Z" fill="url(#paint19_linear_175_198)" fill-opacity="0.6"/>
<path d="M82.9651 521.76C84.4604 521.76 85.5924 522.39 86.361 523.651C87.1436 524.898 87.5349 526.713 87.5349 529.096C87.5349 531.479 87.1436 533.301 86.361 534.561C85.5924 535.822 84.4604 536.453 82.9651 536.453C81.4838 536.453 80.3518 535.822 79.5692 534.561C78.7866 533.301 78.3953 531.479 78.3953 529.096C78.3953 526.726 78.7866 524.911 79.5692 523.651C80.3518 522.39 81.4838 521.76 82.9651 521.76ZM79.8836 529.096C79.8836 530.786 80.0374 532.109 80.3448 533.065L84.9985 523.859C84.5093 523.207 83.8315 522.882 82.9651 522.882C82.0008 522.882 81.2462 523.394 80.7012 524.42C80.1561 525.431 79.8836 526.99 79.8836 529.096ZM82.9651 535.31C83.9433 535.31 84.705 534.804 85.25 533.792C85.795 532.767 86.0675 531.202 86.0675 529.096C86.0675 527.308 85.8928 525.923 85.5435 524.939L80.8898 534.229C81.3929 534.949 82.0847 535.31 82.9651 535.31Z" fill="url(#paint20_linear_175_198)" fill-opacity="0.6"/>
<path d="M82.9651 545.511C84.4604 545.511 85.5924 546.141 86.361 547.402C87.1436 548.649 87.5349 550.464 87.5349 552.847C87.5349 555.23 87.1436 557.052 86.361 558.312C85.5924 559.573 84.4604 560.204 82.9651 560.204C81.4838 560.204 80.3518 559.573 79.5692 558.312C78.7866 557.052 78.3953 555.23 78.3953 552.847C78.3953 550.478 78.7866 548.663 79.5692 547.402C80.3518 546.141 81.4838 545.511 82.9651 545.511ZM79.8836 552.847C79.8836 554.537 80.0374 555.86 80.3448 556.816L84.9985 547.61C84.5093 546.958 83.8315 546.633 82.9651 546.633C82.0008 546.633 81.2462 547.145 80.7012 548.171C80.1561 549.182 79.8836 550.741 79.8836 552.847ZM82.9651 559.061C83.9433 559.061 84.705 558.555 85.25 557.543C85.795 556.518 86.0675 554.953 86.0675 552.847C86.0675 551.059 85.8928 549.674 85.5435 548.69L80.8898 557.98C81.3929 558.7 82.0847 559.061 82.9651 559.061Z" fill="url(#paint21_linear_175_198)" fill-opacity="0.6"/>
<path d="M84.2228 582.645H87.3043V583.747H79.3176V582.645H82.8812V570.966L79.4853 572.982L78.8984 572.046L83.0909 569.469H84.2228V582.645Z" fill="url(#paint22_linear_175_198)" fill-opacity="0.6"/>
<path d="M82.9651 593.013C84.4604 593.013 85.5924 593.643 86.361 594.904C87.1436 596.151 87.5349 597.966 87.5349 600.349C87.5349 602.732 87.1436 604.554 86.361 605.815C85.5924 607.075 84.4604 607.706 82.9651 607.706C81.4838 607.706 80.3518 607.075 79.5692 605.815C78.7866 604.554 78.3953 602.732 78.3953 600.349C78.3953 597.98 78.7866 596.165 79.5692 594.904C80.3518 593.643 81.4838 593.013 82.9651 593.013ZM79.8836 600.349C79.8836 602.039 80.0374 603.362 80.3448 604.318L84.9985 595.112C84.5093 594.461 83.8315 594.135 82.9651 594.135C82.0008 594.135 81.2462 594.648 80.7012 595.673C80.1561 596.684 79.8836 598.243 79.8836 600.349ZM82.9651 606.563C83.9433 606.563 84.705 606.057 85.25 605.046C85.795 604.02 86.0675 602.455 86.0675 600.349C86.0675 598.562 85.8928 597.176 85.5435 596.192L80.8898 605.482C81.3929 606.202 82.0847 606.563 82.9651 606.563Z" fill="url(#paint23_linear_175_198)" fill-opacity="0.6"/>
<path d="M84.2228 630.148H87.3043V631.249H79.3176V630.148H82.8812V618.468L79.4853 620.484L78.8984 619.549L83.0909 616.972H84.2228V630.148Z" fill="url(#paint24_linear_175_198)" fill-opacity="0.6"/>
<path d="M84.2228 653.899H87.3043V655H79.3176V653.899H82.8812V642.219L79.4853 644.235L78.8984 643.3L83.0909 640.723H84.2228V653.899Z" fill="url(#paint25_linear_175_198)" fill-opacity="0.6"/>
<path d="M24.5698 379.253C26.0651 379.253 27.1971 379.884 27.9657 381.144C28.7483 382.391 29.1396 384.206 29.1396 386.589C29.1396 388.972 28.7483 390.794 27.9657 392.055C27.1971 393.316 26.0651 393.946 24.5698 393.946C23.0885 393.946 21.9565 393.316 21.1739 392.055C20.3913 390.794 20 388.972 20 386.589C20 384.22 20.3913 382.405 21.1739 381.144C21.9565 379.884 23.0885 379.253 24.5698 379.253ZM21.4883 386.589C21.4883 388.28 21.6421 389.603 21.9495 390.559L26.6032 381.352C26.114 380.701 25.4363 380.375 24.5698 380.375C23.6055 380.375 22.8509 380.888 22.3059 381.913C21.7608 382.925 21.4883 384.483 21.4883 386.589ZM24.5698 392.803C25.5481 392.803 26.3097 392.297 26.8547 391.286C27.3997 390.261 27.6722 388.695 27.6722 386.589C27.6722 384.802 27.4976 383.417 27.1482 382.433L22.4945 391.722C22.9976 392.443 23.6894 392.803 24.5698 392.803Z" fill="url(#paint26_linear_175_198)" fill-opacity="0.6"/>
<path d="M24.5698 403.004C26.0651 403.004 27.1971 403.635 27.9657 404.895C28.7483 406.142 29.1396 407.957 29.1396 410.34C29.1396 412.723 28.7483 414.545 27.9657 415.806C27.1971 417.067 26.0651 417.697 24.5698 417.697C23.0885 417.697 21.9565 417.067 21.1739 415.806C20.3913 414.545 20 412.723 20 410.34C20 407.971 20.3913 406.156 21.1739 404.895C21.9565 403.635 23.0885 403.004 24.5698 403.004ZM21.4883 410.34C21.4883 412.031 21.6421 413.354 21.9495 414.31L26.6032 405.103C26.114 404.452 25.4363 404.126 24.5698 404.126C23.6055 404.126 22.8509 404.639 22.3059 405.664C21.7608 406.676 21.4883 408.234 21.4883 410.34ZM24.5698 416.554C25.5481 416.554 26.3097 416.049 26.8547 415.037C27.3997 414.012 27.6722 412.446 27.6722 410.34C27.6722 408.553 27.4976 407.168 27.1482 406.184L22.4945 415.474C22.9976 416.194 23.6894 416.554 24.5698 416.554Z" fill="url(#paint27_linear_175_198)" fill-opacity="0.6"/>
<path d="M25.8276 440.139H28.909V441.24H20.9223V440.139H24.486V428.459L21.09 430.475L20.5031 429.54L24.6956 426.963H25.8276V440.139Z" fill="url(#paint28_linear_175_198)" fill-opacity="0.6"/>
<path d="M24.5698 450.506C26.0651 450.506 27.1971 451.137 27.9657 452.398C28.7483 453.644 29.1396 455.459 29.1396 457.842C29.1396 460.225 28.7483 462.047 27.9657 463.308C27.1971 464.569 26.0651 465.199 24.5698 465.199C23.0885 465.199 21.9565 464.569 21.1739 463.308C20.3913 462.047 20 460.225 20 457.842C20 455.473 20.3913 453.658 21.1739 452.398C21.9565 451.137 23.0885 450.506 24.5698 450.506ZM21.4883 457.842C21.4883 459.533 21.6421 460.856 21.9495 461.812L26.6032 452.605C26.114 451.954 25.4363 451.629 24.5698 451.629C23.6055 451.629 22.8509 452.141 22.3059 453.166C21.7608 454.178 21.4883 455.737 21.4883 457.842ZM24.5698 464.056C25.5481 464.056 26.3097 463.551 26.8547 462.539C27.3997 461.514 27.6722 459.948 27.6722 457.842C27.6722 456.055 27.4976 454.67 27.1482 453.686L22.4945 462.976C22.9976 463.696 23.6894 464.056 24.5698 464.056Z" fill="url(#paint29_linear_175_198)" fill-opacity="0.6"/>
<path d="M25.8276 487.641H28.909V488.743H20.9223V487.641H24.486V475.962L21.09 477.977L20.5031 477.042L24.6956 474.465H25.8276V487.641Z" fill="url(#paint30_linear_175_198)" fill-opacity="0.6"/>
<path d="M25.8276 511.392H28.909V512.494H20.9223V511.392H24.486V499.713L21.09 501.728L20.5031 500.793L24.6956 498.216H25.8276V511.392Z" fill="url(#paint31_linear_175_198)" fill-opacity="0.6"/>
<path d="M64.7577 345.135H67.8392V346.236H59.8525V345.135H63.4162V333.455L60.0202 335.471L59.4333 334.536L63.6258 331.959H64.7577V345.135Z" fill="url(#paint32_linear_175_198)" fill-opacity="0.6"/>
<path d="M63.5 355.502C64.9953 355.502 66.1273 356.133 66.8959 357.393C67.6785 358.64 68.0698 360.455 68.0698 362.838C68.0698 365.221 67.6785 367.043 66.8959 368.304C66.1273 369.565 64.9953 370.195 63.5 370.195C62.0187 370.195 60.8867 369.565 60.1041 368.304C59.3215 367.043 58.9302 365.221 58.9302 362.838C58.9302 360.469 59.3215 358.654 60.1041 357.393C60.8867 356.133 62.0187 355.502 63.5 355.502ZM60.4185 362.838C60.4185 364.529 60.5723 365.852 60.8797 366.808L65.5334 357.601C65.0442 356.95 64.3664 356.624 63.5 356.624C62.5357 356.624 61.7811 357.137 61.2361 358.162C60.691 359.174 60.4185 360.732 60.4185 362.838ZM63.5 369.052C64.4782 369.052 65.2399 368.546 65.7849 367.535C66.3299 366.51 66.6024 364.944 66.6024 362.838C66.6024 361.051 66.4277 359.665 66.0784 358.682L61.4247 367.971C61.9278 368.692 62.6196 369.052 63.5 369.052Z" fill="url(#paint33_linear_175_198)" fill-opacity="0.6"/>
<path d="M64.7577 392.637H67.8392V393.738H59.8525V392.637H63.4162V380.957L60.0202 382.973L59.4333 382.038L63.6258 379.461H64.7577V392.637Z" fill="url(#paint34_linear_175_198)" fill-opacity="0.6"/>
<path d="M64.7577 416.388H67.8392V417.489H59.8525V416.388H63.4162V404.708L60.0202 406.724L59.4333 405.789L63.6258 403.212H64.7577V416.388Z" fill="url(#paint35_linear_175_198)" fill-opacity="0.6"/>
<path d="M63.5 426.755C64.9953 426.755 66.1273 427.386 66.8959 428.646C67.6785 429.893 68.0698 431.708 68.0698 434.091C68.0698 436.474 67.6785 438.296 66.8959 439.557C66.1273 440.818 64.9953 441.448 63.5 441.448C62.0187 441.448 60.8867 440.818 60.1041 439.557C59.3215 438.296 58.9302 436.474 58.9302 434.091C58.9302 431.722 59.3215 429.907 60.1041 428.646C60.8867 427.386 62.0187 426.755 63.5 426.755ZM60.4185 434.091C60.4185 435.782 60.5723 437.105 60.8797 438.061L65.5334 428.854C65.0442 428.203 64.3664 427.878 63.5 427.878C62.5357 427.878 61.7811 428.39 61.2361 429.415C60.691 430.427 60.4185 431.985 60.4185 434.091ZM63.5 440.305C64.4782 440.305 65.2399 439.8 65.7849 438.788C66.3299 437.763 66.6024 436.197 66.6024 434.091C66.6024 432.304 66.4277 430.919 66.0784 429.935L61.4247 439.225C61.9278 439.945 62.6196 440.305 63.5 440.305Z" fill="url(#paint36_linear_175_198)" fill-opacity="0.6"/>
<path d="M64.7577 463.89H67.8392V464.992H59.8525V463.89H63.4162V452.21L60.0202 454.226L59.4333 453.291L63.6258 450.714H64.7577V463.89Z" fill="url(#paint37_linear_175_198)" fill-opacity="0.6"/>
<path d="M64.7577 487.641H67.8392V488.743H59.8525V487.641H63.4162V475.962L60.0202 477.977L59.4333 477.042L63.6258 474.465H64.7577V487.641Z" fill="url(#paint38_linear_175_198)" fill-opacity="0.6"/>
<path d="M63.5 498.008C64.9953 498.008 66.1273 498.639 66.8959 499.9C67.6785 501.147 68.0698 502.962 68.0698 505.345C68.0698 507.728 67.6785 509.549 66.8959 510.81C66.1273 512.071 64.9953 512.701 63.5 512.701C62.0187 512.701 60.8867 512.071 60.1041 510.81C59.3215 509.549 58.9302 507.728 58.9302 505.345C58.9302 502.975 59.3215 501.16 60.1041 499.9C60.8867 498.639 62.0187 498.008 63.5 498.008ZM60.4185 505.345C60.4185 507.035 60.5723 508.358 60.8797 509.314L65.5334 500.107C65.0442 499.456 64.3664 499.131 63.5 499.131C62.5357 499.131 61.7811 499.643 61.2361 500.669C60.691 501.68 60.4185 503.239 60.4185 505.345ZM63.5 511.558C64.4782 511.558 65.2399 511.053 65.7849 510.041C66.3299 509.016 66.6024 507.451 66.6024 505.345C66.6024 503.557 66.4277 502.172 66.0784 501.188L61.4247 510.478C61.9278 511.198 62.6196 511.558 63.5 511.558Z" fill="url(#paint39_linear_175_198)" fill-opacity="0.6"/>
<path d="M64.7577 535.143H67.8392V536.245H59.8525V535.143H63.4162V523.464L60.0202 525.48L59.4333 524.544L63.6258 521.967H64.7577V535.143Z" fill="url(#paint40_linear_175_198)" fill-opacity="0.6"/>
<path d="M63.5 545.511C64.9953 545.511 66.1273 546.141 66.8959 547.402C67.6785 548.649 68.0698 550.464 68.0698 552.847C68.0698 555.23 67.6785 557.052 66.8959 558.312C66.1273 559.573 64.9953 560.204 63.5 560.204C62.0187 560.204 60.8867 559.573 60.1041 558.312C59.3215 557.052 58.9302 555.23 58.9302 552.847C58.9302 550.478 59.3215 548.663 60.1041 547.402C60.8867 546.141 62.0187 545.511 63.5 545.511ZM60.4185 552.847C60.4185 554.537 60.5723 555.86 60.8797 556.816L65.5334 547.61C65.0442 546.958 64.3664 546.633 63.5 546.633C62.5357 546.633 61.7811 547.145 61.2361 548.171C60.691 549.182 60.4185 550.741 60.4185 552.847ZM63.5 559.061C64.4782 559.061 65.2399 558.555 65.7849 557.543C66.3299 556.518 66.6024 554.953 66.6024 552.847C66.6024 551.059 66.4277 549.674 66.0784 548.69L61.4247 557.98C61.9278 558.7 62.6196 559.061 63.5 559.061Z" fill="url(#paint41_linear_175_198)" fill-opacity="0.6"/>
<path d="M102.43 331.751C103.926 331.751 105.057 332.381 105.826 333.642C106.609 334.889 107 336.704 107 339.087C107 341.47 106.609 343.292 105.826 344.553C105.057 345.814 103.926 346.444 102.43 346.444C100.949 346.444 99.8169 345.814 99.0343 344.553C98.2517 343.292 97.8604 341.47 97.8604 339.087C97.8604 336.718 98.2517 334.903 99.0343 333.642C99.8169 332.381 100.949 331.751 102.43 331.751ZM99.3487 339.087C99.3487 340.777 99.5024 342.101 99.8099 343.057L104.464 333.85C103.974 333.199 103.297 332.873 102.43 332.873C101.466 332.873 100.711 333.386 100.166 334.411C99.6212 335.423 99.3487 336.981 99.3487 339.087ZM102.43 345.301C103.408 345.301 104.17 344.795 104.715 343.784C105.26 342.759 105.533 341.193 105.533 339.087C105.533 337.3 105.358 335.914 105.009 334.931L100.355 344.22C100.858 344.941 101.55 345.301 102.43 345.301Z" fill="url(#paint42_linear_175_198)" fill-opacity="0.6"/>
<path d="M103.688 368.886H106.769V369.987H98.7827V368.886H102.346V357.206L98.9504 359.222L98.3635 358.287L102.556 355.71H103.688V368.886Z" fill="url(#paint43_linear_175_198)" fill-opacity="0.6"/>
<path d="M103.688 392.637H106.769V393.738H98.7827V392.637H102.346V380.957L98.9504 382.973L98.3635 382.038L102.556 379.461H103.688V392.637Z" fill="url(#paint44_linear_175_198)" fill-opacity="0.6"/>
<path d="M102.43 403.004C103.926 403.004 105.057 403.635 105.826 404.895C106.609 406.142 107 407.957 107 410.34C107 412.723 106.609 414.545 105.826 415.806C105.057 417.067 103.926 417.697 102.43 417.697C100.949 417.697 99.8169 417.067 99.0343 415.806C98.2517 414.545 97.8604 412.723 97.8604 410.34C97.8604 407.971 98.2517 406.156 99.0343 404.895C99.8169 403.635 100.949 403.004 102.43 403.004ZM99.3487 410.34C99.3487 412.031 99.5024 413.354 99.8099 414.31L104.464 405.103C103.974 404.452 103.297 404.126 102.43 404.126C101.466 404.126 100.711 404.639 100.166 405.664C99.6212 406.676 99.3487 408.234 99.3487 410.34ZM102.43 416.554C103.408 416.554 104.17 416.049 104.715 415.037C105.26 414.012 105.533 412.446 105.533 410.34C105.533 408.553 105.358 407.168 105.009 406.184L100.355 415.474C100.858 416.194 101.55 416.554 102.43 416.554Z" fill="url(#paint45_linear_175_198)" fill-opacity="0.6"/>
<path d="M102.43 426.755C103.926 426.755 105.057 427.386 105.826 428.646C106.609 429.893 107 431.708 107 434.091C107 436.474 106.609 438.296 105.826 439.557C105.057 440.818 103.926 441.448 102.43 441.448C100.949 441.448 99.8169 440.818 99.0343 439.557C98.2517 438.296 97.8604 436.474 97.8604 434.091C97.8604 431.722 98.2517 429.907 99.0343 428.646C99.8169 427.386 100.949 426.755 102.43 426.755ZM99.3487 434.091C99.3487 435.782 99.5024 437.105 99.8099 438.061L104.464 428.854C103.974 428.203 103.297 427.878 102.43 427.878C101.466 427.878 100.711 428.39 100.166 429.415C99.6212 430.427 99.3487 431.985 99.3487 434.091ZM102.43 440.305C103.408 440.305 104.17 439.8 104.715 438.788C105.26 437.763 105.533 436.197 105.533 434.091C105.533 432.304 105.358 430.919 105.009 429.935L100.355 439.225C100.858 439.945 101.55 440.305 102.43 440.305Z" fill="url(#paint46_linear_175_198)" fill-opacity="0.6"/>
<g opacity="0.6">
<path d="M930.93 8C932.356 8 933.436 8.60496 934.17 9.81488C934.916 11.0115 935.29 12.7532 935.29 15.0401C935.29 17.327 934.916 19.0754 934.17 20.2853C933.436 21.4952 932.356 22.1002 930.93 22.1002C929.517 22.1002 928.437 21.4952 927.69 20.2853C926.943 19.0754 926.57 17.327 926.57 15.0401C926.57 12.7665 926.943 11.0248 927.69 9.81488C928.437 8.60496 929.517 8 930.93 8ZM927.99 15.0401C927.99 16.6622 928.137 17.932 928.43 18.8494L932.87 10.0143C932.403 9.38941 931.756 9.07696 930.93 9.07696C930.01 9.07696 929.29 9.56891 928.77 10.5528C928.25 11.5234 927.99 13.0192 927.99 15.0401ZM930.93 21.0033C931.863 21.0033 932.59 20.518 933.11 19.5474C933.63 18.5635 933.89 17.0611 933.89 15.0401C933.89 13.325 933.723 11.9954 933.39 11.0514L928.95 19.9662C929.43 20.6576 930.09 21.0033 930.93 21.0033Z" fill="url(#paint47_linear_175_198)"/>
<path d="M932.13 43.6365H935.07V44.6936H927.45V43.6365H930.85V32.4282L927.61 34.3627L927.05 33.4653L931.05 30.9922H932.13V43.6365Z" fill="url(#paint48_linear_175_198)"/>
<path d="M930.93 53.5856C932.356 53.5856 933.436 54.1906 934.17 55.4005C934.916 56.5971 935.29 58.3389 935.29 60.6257C935.29 62.9126 934.916 64.661 934.17 65.8709C933.436 67.0808 932.356 67.6858 930.93 67.6858C929.517 67.6858 928.437 67.0808 927.69 65.8709C926.943 64.661 926.57 62.9126 926.57 60.6257C926.57 58.3522 926.943 56.6104 927.69 55.4005C928.437 54.1906 929.517 53.5856 930.93 53.5856ZM927.99 60.6257C927.99 62.2478 928.137 63.5176 928.43 64.435L932.87 55.5999C932.403 54.975 931.756 54.6626 930.93 54.6626C930.01 54.6626 929.29 55.1545 928.77 56.1384C928.25 57.109 927.99 58.6048 927.99 60.6257ZM930.93 66.5889C931.863 66.5889 932.59 66.1036 933.11 65.133C933.63 64.1491 933.89 62.6467 933.89 60.6257C933.89 58.9106 933.723 57.581 933.39 56.637L928.95 65.5518C929.43 66.2432 930.09 66.5889 930.93 66.5889Z" fill="url(#paint49_linear_175_198)"/>
<path d="M932.13 89.2221H935.07V90.2792H927.45V89.2221H930.85V78.0138L927.61 79.9483L927.05 79.0509L931.05 76.5778H932.13V89.2221Z" fill="url(#paint50_linear_175_198)"/>
<path d="M932.13 112.015H935.07V113.072H927.45V112.015H930.85V100.807L927.61 102.741L927.05 101.844L931.05 99.3706H932.13V112.015Z" fill="url(#paint51_linear_175_198)"/>
<path d="M930.93 121.964C932.356 121.964 933.436 122.569 934.17 123.779C934.916 124.976 935.29 126.717 935.29 129.004C935.29 131.291 934.916 133.039 934.17 134.249C933.436 135.459 932.356 136.064 930.93 136.064C929.517 136.064 928.437 135.459 927.69 134.249C926.943 133.039 926.57 131.291 926.57 129.004C926.57 126.731 926.943 124.989 927.69 123.779C928.437 122.569 929.517 121.964 930.93 121.964ZM927.99 129.004C927.99 130.626 928.137 131.896 928.43 132.813L932.87 123.978C932.403 123.353 931.756 123.041 930.93 123.041C930.01 123.041 929.29 123.533 928.77 124.517C928.25 125.487 927.99 126.983 927.99 129.004ZM930.93 134.967C931.863 134.967 932.59 134.482 933.11 133.511C933.63 132.528 933.89 131.025 933.89 129.004C933.89 127.289 933.723 125.959 933.39 125.015L928.95 133.93C929.43 134.622 930.09 134.967 930.93 134.967Z" fill="url(#paint52_linear_175_198)"/>
<path d="M932.13 157.601H935.07V158.658H927.45V157.601H930.85V146.392L927.61 148.327L927.05 147.429L931.05 144.956H932.13V157.601Z" fill="url(#paint53_linear_175_198)"/>
<path d="M930.93 167.55C932.356 167.55 933.436 168.155 934.17 169.365C934.916 170.561 935.29 172.303 935.29 174.59C935.29 176.877 934.916 178.625 934.17 179.835C933.436 181.045 932.356 181.65 930.93 181.65C929.517 181.65 928.437 181.045 927.69 179.835C926.943 178.625 926.57 176.877 926.57 174.59C926.57 172.316 926.943 170.574 927.69 169.365C928.437 168.155 929.517 167.55 930.93 167.55ZM927.99 174.59C927.99 176.212 928.137 177.482 928.43 178.399L932.87 169.564C932.403 168.939 931.756 168.627 930.93 168.627C930.01 168.627 929.29 169.119 928.77 170.102C928.25 171.073 927.99 172.569 927.99 174.59ZM930.93 180.553C931.863 180.553 932.59 180.068 933.11 179.097C933.63 178.113 933.89 176.611 933.89 174.59C933.89 172.875 933.723 171.545 933.39 170.601L928.95 179.516C929.43 180.207 930.09 180.553 930.93 180.553Z" fill="url(#paint54_linear_175_198)"/>
<path d="M930.93 190.342C932.356 190.342 933.436 190.947 934.17 192.157C934.916 193.354 935.29 195.096 935.29 197.383C935.29 199.669 934.916 201.418 934.17 202.628C933.436 203.838 932.356 204.443 930.93 204.443C929.517 204.443 928.437 203.838 927.69 202.628C926.943 201.418 926.57 199.669 926.57 197.383C926.57 195.109 926.943 193.367 927.69 192.157C928.437 190.947 929.517 190.342 930.93 190.342ZM927.99 197.383C927.99 199.005 928.137 200.274 928.43 201.192L932.87 192.357C932.403 191.732 931.756 191.419 930.93 191.419C930.01 191.419 929.29 191.911 928.77 192.895C928.25 193.866 927.99 195.362 927.99 197.383ZM930.93 203.346C931.863 203.346 932.59 202.86 933.11 201.89C933.63 200.906 933.89 199.404 933.89 197.383C933.89 195.667 933.723 194.338 933.39 193.394L928.95 202.309C929.43 203 930.09 203.346 930.93 203.346Z" fill="url(#paint55_linear_175_198)"/>
<path d="M932.13 225.979H935.07V227.036H927.45V225.979H930.85V214.771L927.61 216.705L927.05 215.808L931.05 213.335H932.13V225.979Z" fill="url(#paint56_linear_175_198)"/>
<path d="M930.93 235.928C932.356 235.928 933.436 236.533 934.17 237.743C934.916 238.94 935.29 240.681 935.29 242.968C935.29 245.255 934.916 247.003 934.17 248.213C933.436 249.423 932.356 250.028 930.93 250.028C929.517 250.028 928.437 249.423 927.69 248.213C926.943 247.003 926.57 245.255 926.57 242.968C926.57 240.695 926.943 238.953 927.69 237.743C928.437 236.533 929.517 235.928 930.93 235.928ZM927.99 242.968C927.99 244.59 928.137 245.86 928.43 246.777L932.87 237.942C932.403 237.317 931.756 237.005 930.93 237.005C930.01 237.005 929.29 237.497 928.77 238.481C928.25 239.451 927.99 240.947 927.99 242.968ZM930.93 248.931C931.863 248.931 932.59 248.446 933.11 247.475C933.63 246.492 933.89 244.989 933.89 242.968C933.89 241.253 933.723 239.923 933.39 238.979L928.95 247.894C929.43 248.586 930.09 248.931 930.93 248.931Z" fill="url(#paint57_linear_175_198)"/>
<path d="M932.13 271.565H935.07V272.622H927.45V271.565H930.85V260.356L927.61 262.291L927.05 261.393L931.05 258.92H932.13V271.565Z" fill="url(#paint58_linear_175_198)"/>
<path d="M932.13 294.357H935.07V295.414H927.45V294.357H930.85V283.149L927.61 285.084L927.05 284.186L931.05 281.713H932.13V294.357Z" fill="url(#paint59_linear_175_198)"/>
<path d="M968.07 53.5856C969.497 53.5856 970.577 54.1906 971.31 55.4005C972.057 56.5971 972.43 58.3389 972.43 60.6257C972.43 62.9126 972.057 64.661 971.31 65.8709C970.577 67.0808 969.497 67.6858 968.07 67.6858C966.657 67.6858 965.577 67.0808 964.83 65.8709C964.084 64.661 963.71 62.9126 963.71 60.6257C963.71 58.3522 964.084 56.6104 964.83 55.4005C965.577 54.1906 966.657 53.5856 968.07 53.5856ZM965.13 60.6257C965.13 62.2478 965.277 63.5176 965.57 64.435L970.01 55.5999C969.543 54.975 968.897 54.6626 968.07 54.6626C967.15 54.6626 966.43 55.1545 965.91 56.1384C965.39 57.109 965.13 58.6048 965.13 60.6257ZM968.07 66.5889C969.003 66.5889 969.73 66.1036 970.25 65.133C970.77 64.1491 971.03 62.6467 971.03 60.6257C971.03 58.9106 970.863 57.581 970.53 56.637L966.09 65.5518C966.57 66.2432 967.23 66.5889 968.07 66.5889Z" fill="url(#paint60_linear_175_198)"/>
<path d="M969.27 89.2221H972.21V90.2792H964.59V89.2221H967.99V78.0138L964.75 79.9483L964.19 79.0509L968.19 76.5778H969.27V89.2221Z" fill="url(#paint61_linear_175_198)"/>
<path d="M968.07 99.1712C969.497 99.1712 970.577 99.7762 971.31 100.986C972.057 102.183 972.43 103.924 972.43 106.211C972.43 108.498 972.057 110.247 971.31 111.457C970.577 112.666 969.497 113.271 968.07 113.271C966.657 113.271 965.577 112.666 964.83 111.457C964.084 110.247 963.71 108.498 963.71 106.211C963.71 103.938 964.084 102.196 964.83 100.986C965.577 99.7762 966.657 99.1712 968.07 99.1712ZM965.13 106.211C965.13 107.833 965.277 109.103 965.57 110.021L970.01 101.186C969.543 100.561 968.897 100.248 968.07 100.248C967.15 100.248 966.43 100.74 965.91 101.724C965.39 102.695 965.13 104.19 965.13 106.211ZM968.07 112.174C969.003 112.174 969.73 111.689 970.25 110.719C970.77 109.735 971.03 108.232 971.03 106.211C971.03 104.496 970.863 103.167 970.53 102.223L966.09 111.137C966.57 111.829 967.23 112.174 968.07 112.174Z" fill="url(#paint62_linear_175_198)"/>
<path d="M968.07 121.964C969.497 121.964 970.577 122.569 971.31 123.779C972.057 124.976 972.43 126.717 972.43 129.004C972.43 131.291 972.057 133.039 971.31 134.249C970.577 135.459 969.497 136.064 968.07 136.064C966.657 136.064 965.577 135.459 964.83 134.249C964.084 133.039 963.71 131.291 963.71 129.004C963.71 126.731 964.084 124.989 964.83 123.779C965.577 122.569 966.657 121.964 968.07 121.964ZM965.13 129.004C965.13 130.626 965.277 131.896 965.57 132.813L970.01 123.978C969.543 123.353 968.897 123.041 968.07 123.041C967.15 123.041 966.43 123.533 965.91 124.517C965.39 125.487 965.13 126.983 965.13 129.004ZM968.07 134.967C969.003 134.967 969.73 134.482 970.25 133.511C970.77 132.528 971.03 131.025 971.03 129.004C971.03 127.289 970.863 125.959 970.53 125.015L966.09 133.93C966.57 134.622 967.23 134.967 968.07 134.967Z" fill="url(#paint63_linear_175_198)"/>
<path d="M969.27 157.601H972.21V158.658H964.59V157.601H967.99V146.392L964.75 148.327L964.19 147.429L968.19 144.956H969.27V157.601Z" fill="url(#paint64_linear_175_198)"/>
<path d="M968.07 167.55C969.497 167.55 970.577 168.155 971.31 169.365C972.057 170.561 972.43 172.303 972.43 174.59C972.43 176.877 972.057 178.625 971.31 179.835C970.577 181.045 969.497 181.65 968.07 181.65C966.657 181.65 965.577 181.045 964.83 179.835C964.084 178.625 963.71 176.877 963.71 174.59C963.71 172.316 964.084 170.574 964.83 169.365C965.577 168.155 966.657 167.55 968.07 167.55ZM965.13 174.59C965.13 176.212 965.277 177.482 965.57 178.399L970.01 169.564C969.543 168.939 968.897 168.627 968.07 168.627C967.15 168.627 966.43 169.119 965.91 170.102C965.39 171.073 965.13 172.569 965.13 174.59ZM968.07 180.553C969.003 180.553 969.73 180.068 970.25 179.097C970.77 178.113 971.03 176.611 971.03 174.59C971.03 172.875 970.863 171.545 970.53 170.601L966.09 179.516C966.57 180.207 967.23 180.553 968.07 180.553Z" fill="url(#paint65_linear_175_198)"/>
<path d="M969.27 203.186H972.21V204.243H964.59V203.186H967.99V191.978L964.75 193.912L964.19 193.015L968.19 190.542H969.27V203.186Z" fill="url(#paint66_linear_175_198)"/>
<path d="M968.07 213.135C969.497 213.135 970.577 213.74 971.31 214.95C972.057 216.147 972.43 217.888 972.43 220.175C972.43 222.462 972.057 224.211 971.31 225.421C970.577 226.63 969.497 227.235 968.07 227.235C966.657 227.235 965.577 226.63 964.83 225.421C964.084 224.211 963.71 222.462 963.71 220.175C963.71 217.902 964.084 216.16 964.83 214.95C965.577 213.74 966.657 213.135 968.07 213.135ZM965.13 220.175C965.13 221.797 965.277 223.067 965.57 223.985L970.01 215.15C969.543 214.525 968.897 214.212 968.07 214.212C967.15 214.212 966.43 214.704 965.91 215.688C965.39 216.659 965.13 218.154 965.13 220.175ZM968.07 226.139C969.003 226.139 969.73 225.653 970.25 224.683C970.77 223.699 971.03 222.196 971.03 220.175C971.03 218.46 970.863 217.131 970.53 216.187L966.09 225.101C966.57 225.793 967.23 226.139 968.07 226.139Z" fill="url(#paint67_linear_175_198)"/>
<path d="M968.07 235.928C969.497 235.928 970.577 236.533 971.31 237.743C972.057 238.94 972.43 240.681 972.43 242.968C972.43 245.255 972.057 247.003 971.31 248.213C970.577 249.423 969.497 250.028 968.07 250.028C966.657 250.028 965.577 249.423 964.83 248.213C964.084 247.003 963.71 245.255 963.71 242.968C963.71 240.695 964.084 238.953 964.83 237.743C965.577 236.533 966.657 235.928 968.07 235.928ZM965.13 242.968C965.13 244.59 965.277 245.86 965.57 246.777L970.01 237.942C969.543 237.317 968.897 237.005 968.07 237.005C967.15 237.005 966.43 237.497 965.91 238.481C965.39 239.451 965.13 240.947 965.13 242.968ZM968.07 248.931C969.003 248.931 969.73 248.446 970.25 247.475C970.77 246.492 971.03 244.989 971.03 242.968C971.03 241.253 970.863 239.923 970.53 238.979L966.09 247.894C966.57 248.586 967.23 248.931 968.07 248.931Z" fill="url(#paint68_linear_175_198)"/>
<path d="M969.27 271.565H972.21V272.622H964.59V271.565H967.99V260.356L964.75 262.291L964.19 261.393L968.19 258.92H969.27V271.565Z" fill="url(#paint69_linear_175_198)"/>
<path d="M968.07 281.514C969.497 281.514 970.577 282.119 971.31 283.329C972.057 284.525 972.43 286.267 972.43 288.554C972.43 290.841 972.057 292.589 971.31 293.799C970.577 295.009 969.497 295.614 968.07 295.614C966.657 295.614 965.577 295.009 964.83 293.799C964.084 292.589 963.71 290.841 963.71 288.554C963.71 286.28 964.084 284.538 964.83 283.329C965.577 282.119 966.657 281.514 968.07 281.514ZM965.13 288.554C965.13 290.176 965.277 291.446 965.57 292.363L970.01 283.528C969.543 282.903 968.897 282.591 968.07 282.591C967.15 282.591 966.43 283.083 965.91 284.066C965.39 285.037 965.13 286.533 965.13 288.554ZM968.07 294.517C969.003 294.517 969.73 294.032 970.25 293.061C970.77 292.077 971.03 290.575 971.03 288.554C971.03 286.839 970.863 285.509 970.53 284.565L966.09 293.48C966.57 294.171 967.23 294.517 968.07 294.517Z" fill="url(#paint70_linear_175_198)"/>
<path d="M969.27 317.15H972.21V318.207H964.59V317.15H967.99V305.942L964.75 307.876L964.19 306.979L968.19 304.506H969.27V317.15Z" fill="url(#paint71_linear_175_198)"/>
<path d="M969.27 339.943H972.21V341H964.59V339.943H967.99V328.735L964.75 330.669L964.19 329.772L968.19 327.299H969.27V339.943Z" fill="url(#paint72_linear_175_198)"/>
<path d="M912.36 76.3784C913.786 76.3784 914.866 76.9834 915.599 78.1933C916.346 79.3899 916.719 81.1317 916.719 83.4185C916.719 85.7054 916.346 87.4538 915.599 88.6637C914.866 89.8736 913.786 90.4786 912.36 90.4786C910.946 90.4786 909.867 89.8736 909.12 88.6637C908.373 87.4538 908 85.7054 908 83.4185C908 81.145 908.373 79.4032 909.12 78.1933C909.867 76.9834 910.946 76.3784 912.36 76.3784ZM909.42 83.4185C909.42 85.0406 909.567 86.3104 909.86 87.2278L914.3 78.3927C913.833 77.7678 913.186 77.4554 912.36 77.4554C911.44 77.4554 910.72 77.9473 910.2 78.9312C909.68 79.9018 909.42 81.3976 909.42 83.4185ZM912.36 89.3817C913.293 89.3817 914.02 88.8964 914.54 87.9258C915.06 86.9419 915.319 85.4395 915.319 83.4185C915.319 81.7034 915.153 80.3738 914.82 79.4298L910.38 88.3446C910.86 89.036 911.52 89.3817 912.36 89.3817Z" fill="url(#paint73_linear_175_198)"/>
<path d="M912.36 99.1712C913.786 99.1712 914.866 99.7762 915.599 100.986C916.346 102.183 916.719 103.924 916.719 106.211C916.719 108.498 916.346 110.247 915.599 111.457C914.866 112.666 913.786 113.271 912.36 113.271C910.946 113.271 909.867 112.666 909.12 111.457C908.373 110.247 908 108.498 908 106.211C908 103.938 908.373 102.196 909.12 100.986C909.867 99.7762 910.946 99.1712 912.36 99.1712ZM909.42 106.211C909.42 107.833 909.567 109.103 909.86 110.021L914.3 101.186C913.833 100.561 913.186 100.248 912.36 100.248C911.44 100.248 910.72 100.74 910.2 101.724C909.68 102.695 909.42 104.19 909.42 106.211ZM912.36 112.174C913.293 112.174 914.02 111.689 914.54 110.719C915.06 109.735 915.319 108.232 915.319 106.211C915.319 104.496 915.153 103.167 914.82 102.223L910.38 111.137C910.86 111.829 911.52 112.174 912.36 112.174Z" fill="url(#paint74_linear_175_198)"/>
<path d="M913.56 134.808H916.499V135.865H908.88V134.808H912.28V123.599L909.04 125.534L908.48 124.636L912.48 122.163H913.56V134.808Z" fill="url(#paint75_linear_175_198)"/>
<path d="M912.36 144.757C913.786 144.757 914.866 145.362 915.599 146.572C916.346 147.768 916.719 149.51 916.719 151.797C916.719 154.084 916.346 155.832 915.599 157.042C914.866 158.252 913.786 158.857 912.36 158.857C910.946 158.857 909.867 158.252 909.12 157.042C908.373 155.832 908 154.084 908 151.797C908 149.523 908.373 147.782 909.12 146.572C909.867 145.362 910.946 144.757 912.36 144.757ZM909.42 151.797C909.42 153.419 909.567 154.689 909.86 155.606L914.3 146.771C913.833 146.146 913.186 145.834 912.36 145.834C911.44 145.834 910.72 146.326 910.2 147.31C909.68 148.28 909.42 149.776 909.42 151.797ZM912.36 157.76C913.293 157.76 914.02 157.275 914.54 156.304C915.06 155.32 915.319 153.818 915.319 151.797C915.319 150.082 915.153 148.752 914.82 147.808L910.38 156.723C910.86 157.414 911.52 157.76 912.36 157.76Z" fill="url(#paint76_linear_175_198)"/>
<path d="M913.56 180.393H916.499V181.45H908.88V180.393H912.28V169.185L909.04 171.12L908.48 170.222L912.48 167.749H913.56V180.393Z" fill="url(#paint77_linear_175_198)"/>
<path d="M913.56 203.186H916.499V204.243H908.88V203.186H912.28V191.978L909.04 193.912L908.48 193.015L912.48 190.542H913.56V203.186Z" fill="url(#paint78_linear_175_198)"/>
<path d="M950.7 43.6365H953.64V44.6936H946.02V43.6365H949.42V32.4282L946.18 34.3627L945.62 33.4653L949.62 30.9922H950.7V43.6365Z" fill="url(#paint79_linear_175_198)"/>
<path d="M949.5 53.5856C950.927 53.5856 952.006 54.1906 952.74 55.4005C953.486 56.5971 953.86 58.3389 953.86 60.6257C953.86 62.9126 953.486 64.661 952.74 65.8709C952.006 67.0808 950.927 67.6858 949.5 67.6858C948.087 67.6858 947.007 67.0808 946.26 65.8709C945.514 64.661 945.14 62.9126 945.14 60.6257C945.14 58.3522 945.514 56.6104 946.26 55.4005C947.007 54.1906 948.087 53.5856 949.5 53.5856ZM946.56 60.6257C946.56 62.2478 946.707 63.5176 947 64.435L951.44 55.5999C950.973 54.975 950.327 54.6626 949.5 54.6626C948.58 54.6626 947.86 55.1545 947.34 56.1384C946.82 57.109 946.56 58.6048 946.56 60.6257ZM949.5 66.5889C950.433 66.5889 951.16 66.1036 951.68 65.133C952.2 64.1491 952.46 62.6467 952.46 60.6257C952.46 58.9106 952.293 57.581 951.96 56.637L947.52 65.5518C948 66.2432 948.66 66.5889 949.5 66.5889Z" fill="url(#paint80_linear_175_198)"/>
<path d="M950.7 89.2221H953.64V90.2792H946.02V89.2221H949.42V78.0138L946.18 79.9483L945.62 79.0509L949.62 76.5778H950.7V89.2221Z" fill="url(#paint81_linear_175_198)"/>
<path d="M950.7 112.015H953.64V113.072H946.02V112.015H949.42V100.807L946.18 102.741L945.62 101.844L949.62 99.3706H950.7V112.015Z" fill="url(#paint82_linear_175_198)"/>
<path d="M949.5 121.964C950.927 121.964 952.006 122.569 952.74 123.779C953.486 124.976 953.86 126.717 953.86 129.004C953.86 131.291 953.486 133.039 952.74 134.249C952.006 135.459 950.927 136.064 949.5 136.064C948.087 136.064 947.007 135.459 946.26 134.249C945.514 133.039 945.14 131.291 945.14 129.004C945.14 126.731 945.514 124.989 946.26 123.779C947.007 122.569 948.087 121.964 949.5 121.964ZM946.56 129.004C946.56 130.626 946.707 131.896 947 132.813L951.44 123.978C950.973 123.353 950.327 123.041 949.5 123.041C948.58 123.041 947.86 123.533 947.34 124.517C946.82 125.487 946.56 126.983 946.56 129.004ZM949.5 134.967C950.433 134.967 951.16 134.482 951.68 133.511C952.2 132.528 952.46 131.025 952.46 129.004C952.46 127.289 952.293 125.959 951.96 125.015L947.52 133.93C948 134.622 948.66 134.967 949.5 134.967Z" fill="url(#paint83_linear_175_198)"/>
<path d="M950.7 157.601H953.64V158.658H946.02V157.601H949.42V146.392L946.18 148.327L945.62 147.429L949.62 144.956H950.7V157.601Z" fill="url(#paint84_linear_175_198)"/>
<path d="M950.7 180.393H953.64V181.45H946.02V180.393H949.42V169.185L946.18 171.12L945.62 170.222L949.62 167.749H950.7V180.393Z" fill="url(#paint85_linear_175_198)"/>
<path d="M949.5 190.342C950.927 190.342 952.006 190.947 952.74 192.157C953.486 193.354 953.86 195.096 953.86 197.383C953.86 199.669 953.486 201.418 952.74 202.628C952.006 203.838 950.927 204.443 949.5 204.443C948.087 204.443 947.007 203.838 946.26 202.628C945.514 201.418 945.14 199.669 945.14 197.383C945.14 195.109 945.514 193.367 946.26 192.157C947.007 190.947 948.087 190.342 949.5 190.342ZM946.56 197.383C946.56 199.005 946.707 200.274 947 201.192L951.44 192.357C950.973 191.732 950.327 191.419 949.5 191.419C948.58 191.419 947.86 191.911 947.34 192.895C946.82 193.866 946.56 195.362 946.56 197.383ZM949.5 203.346C950.433 203.346 951.16 202.86 951.68 201.89C952.2 200.906 952.46 199.404 952.46 197.383C952.46 195.667 952.293 194.338 951.96 193.394L947.52 202.309C948 203 948.66 203.346 949.5 203.346Z" fill="url(#paint86_linear_175_198)"/>
<path d="M950.7 225.979H953.64V227.036H946.02V225.979H949.42V214.771L946.18 216.705L945.62 215.808L949.62 213.335H950.7V225.979Z" fill="url(#paint87_linear_175_198)"/>
<path d="M949.5 235.928C950.927 235.928 952.006 236.533 952.74 237.743C953.486 238.94 953.86 240.681 953.86 242.968C953.86 245.255 953.486 247.003 952.74 248.213C952.006 249.423 950.927 250.028 949.5 250.028C948.087 250.028 947.007 249.423 946.26 248.213C945.514 247.003 945.14 245.255 945.14 242.968C945.14 240.695 945.514 238.953 946.26 237.743C947.007 236.533 948.087 235.928 949.5 235.928ZM946.56 242.968C946.56 244.59 946.707 245.86 947 246.777L951.44 237.942C950.973 237.317 950.327 237.005 949.5 237.005C948.58 237.005 947.86 237.497 947.34 238.481C946.82 239.451 946.56 240.947 946.56 242.968ZM949.5 248.931C950.433 248.931 951.16 248.446 951.68 247.475C952.2 246.492 952.46 244.989 952.46 242.968C952.46 241.253 952.293 239.923 951.96 238.979L947.52 247.894C948 248.586 948.66 248.931 949.5 248.931Z" fill="url(#paint88_linear_175_198)"/>
<path d="M986.64 30.7928C988.067 30.7928 989.147 31.3978 989.88 32.6077C990.627 33.8043 991 35.5461 991 37.8329C991 40.1198 990.627 41.8682 989.88 43.0781C989.147 44.288 988.067 44.893 986.64 44.893C985.227 44.893 984.147 44.288 983.401 43.0781C982.654 41.8682 982.281 40.1198 982.281 37.8329C982.281 35.5593 982.654 33.8176 983.401 32.6077C984.147 31.3978 985.227 30.7928 986.64 30.7928ZM983.7 37.8329C983.7 39.455 983.847 40.7248 984.14 41.6422L988.58 32.8071C988.114 32.1822 987.467 31.8698 986.64 31.8698C985.72 31.8698 985 32.3617 984.48 33.3456C983.96 34.3162 983.7 35.812 983.7 37.8329ZM986.64 43.7961C987.574 43.7961 988.3 43.3108 988.82 42.3402C989.34 41.3563 989.6 39.8539 989.6 37.8329C989.6 36.1178 989.433 34.7882 989.1 33.8442L984.66 42.759C985.14 43.4504 985.8 43.7961 986.64 43.7961Z" fill="url(#paint89_linear_175_198)"/>
<path d="M987.84 66.4293H990.78V67.4864H983.161V66.4293H986.56V55.221L983.321 57.1555L982.761 56.2581L986.76 53.785H987.84V66.4293Z" fill="url(#paint90_linear_175_198)"/>
<path d="M987.84 89.2221H990.78V90.2792H983.161V89.2221H986.56V78.0138L983.321 79.9483L982.761 79.0509L986.76 76.5778H987.84V89.2221Z" fill="url(#paint91_linear_175_198)"/>
<path d="M986.64 99.1712C988.067 99.1712 989.147 99.7762 989.88 100.986C990.627 102.183 991 103.924 991 106.211C991 108.498 990.627 110.247 989.88 111.457C989.147 112.666 988.067 113.271 986.64 113.271C985.227 113.271 984.147 112.666 983.401 111.457C982.654 110.247 982.281 108.498 982.281 106.211C982.281 103.938 982.654 102.196 983.401 100.986C984.147 99.7762 985.227 99.1712 986.64 99.1712ZM983.7 106.211C983.7 107.833 983.847 109.103 984.14 110.021L988.58 101.186C988.114 100.561 987.467 100.248 986.64 100.248C985.72 100.248 985 100.74 984.48 101.724C983.96 102.695 983.7 104.19 983.7 106.211ZM986.64 112.174C987.574 112.174 988.3 111.689 988.82 110.719C989.34 109.735 989.6 108.232 989.6 106.211C989.6 104.496 989.433 103.167 989.1 102.223L984.66 111.137C985.14 111.829 985.8 112.174 986.64 112.174Z" fill="url(#paint92_linear_175_198)"/>
<path d="M986.64 121.964C988.067 121.964 989.147 122.569 989.88 123.779C990.627 124.976 991 126.717 991 129.004C991 131.291 990.627 133.039 989.88 134.249C989.147 135.459 988.067 136.064 986.64 136.064C985.227 136.064 984.147 135.459 983.401 134.249C982.654 133.039 982.281 131.291 982.281 129.004C982.281 126.731 982.654 124.989 983.401 123.779C984.147 122.569 985.227 121.964 986.64 121.964ZM983.7 129.004C983.7 130.626 983.847 131.896 984.14 132.813L988.58 123.978C988.114 123.353 987.467 123.041 986.64 123.041C985.72 123.041 985 123.533 984.48 124.517C983.96 125.487 983.7 126.983 983.7 129.004ZM986.64 134.967C987.574 134.967 988.3 134.482 988.82 133.511C989.34 132.528 989.6 131.025 989.6 129.004C989.6 127.289 989.433 125.959 989.1 125.015L984.66 133.93C985.14 134.622 985.8 134.967 986.64 134.967Z" fill="url(#paint93_linear_175_198)"/>
</g>
<defs>
<filter id="filter0_f_175_198" x="-547.19" y="-678.19" width="2141.38" height="1500.38" filterUnits="userSpaceOnUse" color-interpolation-filters="sRGB">
<feFlood flood-opacity="0" result="BackgroundImageFix"/>
<feBlend mode="normal" in="SourceGraphic" in2="BackgroundImageFix" result="shape"/>
<feGaussianBlur stdDeviation="200.095" result="effect1_foregroundBlur_175_198"/>
</filter>
<linearGradient id="paint0_linear_175_198" x1="63.5" y1="308" x2="63.5" y2="619.381" gradientUnits="userSpaceOnUse">
<stop stop-color="#F7DD43"/>
<stop offset="1" stop-color="#F7DD43" stop-opacity="0"/>
</linearGradient>
<linearGradient id="paint1_linear_175_198" x1="63.5" y1="308" x2="63.5" y2="619.381" gradientUnits="userSpaceOnUse">
<stop stop-color="#F7DD43"/>
<stop offset="1" stop-color="#F7DD43" stop-opacity="0"/>
</linearGradient>
<linearGradient id="paint2_linear_175_198" x1="63.5" y1="308" x2="63.5" y2="619.381" gradientUnits="userSpaceOnUse">
<stop stop-color="#F7DD43"/>
<stop offset="1" stop-color="#F7DD43" stop-opacity="0"/>
</linearGradient>
<linearGradient id="paint3_linear_175_198" x1="63.5" y1="308" x2="63.5" y2="619.381" gradientUnits="userSpaceOnUse">
<stop stop-color="#F7DD43"/>
<stop offset="1" stop-color="#F7DD43" stop-opacity="0"/>
</linearGradient>
<linearGradient id="paint4_linear_175_198" x1="63.5" y1="308" x2="63.5" y2="619.381" gradientUnits="userSpaceOnUse">
<stop stop-color="#F7DD43"/>
<stop offset="1" stop-color="#F7DD43" stop-opacity="0"/>
</linearGradient>
<linearGradient id="paint5_linear_175_198" x1="63.5" y1="308" x2="63.5" y2="619.381" gradientUnits="userSpaceOnUse">
<stop stop-color="#F7DD43"/>
<stop offset="1" stop-color="#F7DD43" stop-opacity="0"/>
</linearGradient>
<linearGradient id="paint6_linear_175_198" x1="63.5" y1="308" x2="63.5" y2="619.381" gradientUnits="userSpaceOnUse">
<stop stop-color="#F7DD43"/>
<stop offset="1" stop-color="#F7DD43" stop-opacity="0"/>
</linearGradient>
<linearGradient id="paint7_linear_175_198" x1="63.5" y1="308" x2="63.5" y2="619.381" gradientUnits="userSpaceOnUse">
<stop stop-color="#F7DD43"/>
<stop offset="1" stop-color="#F7DD43" stop-opacity="0"/>
</linearGradient>
<linearGradient id="paint8_linear_175_198" x1="63.5" y1="308" x2="63.5" y2="619.381" gradientUnits="userSpaceOnUse">
<stop stop-color="#F7DD43"/>
<stop offset="1" stop-color="#F7DD43" stop-opacity="0"/>
</linearGradient>
<linearGradient id="paint9_linear_175_198" x1="63.5" y1="308" x2="63.5" y2="619.381" gradientUnits="userSpaceOnUse">
<stop stop-color="#F7DD43"/>
<stop offset="1" stop-color="#F7DD43" stop-opacity="0"/>
</linearGradient>
<linearGradient id="paint10_linear_175_198" x1="63.5" y1="308" x2="63.5" y2="619.381" gradientUnits="userSpaceOnUse">
<stop stop-color="#F7DD43"/>
<stop offset="1" stop-color="#F7DD43" stop-opacity="0"/>
</linearGradient>
<linearGradient id="paint11_linear_175_198" x1="63.5" y1="308" x2="63.5" y2="619.381" gradientUnits="userSpaceOnUse">
<stop stop-color="#F7DD43"/>
<stop offset="1" stop-color="#F7DD43" stop-opacity="0"/>
</linearGradient>
<linearGradient id="paint12_linear_175_198" x1="63.5" y1="308" x2="63.5" y2="619.381" gradientUnits="userSpaceOnUse">
<stop stop-color="#F7DD43"/>
<stop offset="1" stop-color="#F7DD43" stop-opacity="0"/>
</linearGradient>
<linearGradient id="paint13_linear_175_198" x1="63.5" y1="308" x2="63.5" y2="619.381" gradientUnits="userSpaceOnUse">
<stop stop-color="#F7DD43"/>
<stop offset="1" stop-color="#F7DD43" stop-opacity="0"/>
</linearGradient>
<linearGradient id="paint14_linear_175_198" x1="63.5" y1="308" x2="63.5" y2="619.381" gradientUnits="userSpaceOnUse">
<stop stop-color="#F7DD43"/>
<stop offset="1" stop-color="#F7DD43" stop-opacity="0"/>
</linearGradient>
<linearGradient id="paint15_linear_175_198" x1="63.5" y1="308" x2="63.5" y2="619.381" gradientUnits="userSpaceOnUse">
<stop stop-color="#F7DD43"/>
<stop offset="1" stop-color="#F7DD43" stop-opacity="0"/>
</linearGradient>
<linearGradient id="paint16_linear_175_198" x1="63.5" y1="308" x2="63.5" y2="619.381" gradientUnits="userSpaceOnUse">
<stop stop-color="#F7DD43"/>
<stop offset="1" stop-color="#F7DD43" stop-opacity="0"/>
</linearGradient>
<linearGradient id="paint17_linear_175_198" x1="63.5" y1="308" x2="63.5" y2="619.381" gradientUnits="userSpaceOnUse">
<stop stop-color="#F7DD43"/>
<stop offset="1" stop-color="#F7DD43" stop-opacity="0"/>
</linearGradient>
<linearGradient id="paint18_linear_175_198" x1="63.5" y1="308" x2="63.5" y2="619.381" gradientUnits="userSpaceOnUse">
<stop stop-color="#F7DD43"/>
<stop offset="1" stop-color="#F7DD43" stop-opacity="0"/>
</linearGradient>
<linearGradient id="paint19_linear_175_198" x1="63.5" y1="308" x2="63.5" y2="619.381" gradientUnits="userSpaceOnUse">
<stop stop-color="#F7DD43"/>
<stop offset="1" stop-color="#F7DD43" stop-opacity="0"/>
</linearGradient>
<linearGradient id="paint20_linear_175_198" x1="63.5" y1="308" x2="63.5" y2="619.381" gradientUnits="userSpaceOnUse">
<stop stop-color="#F7DD43"/>
<stop offset="1" stop-color="#F7DD43" stop-opacity="0"/>
</linearGradient>
<linearGradient id="paint21_linear_175_198" x1="63.5" y1="308" x2="63.5" y2="619.381" gradientUnits="userSpaceOnUse">
<stop stop-color="#F7DD43"/>
<stop offset="1" stop-color="#F7DD43" stop-opacity="0"/>
</linearGradient>
<linearGradient id="paint22_linear_175_198" x1="63.5" y1="308" x2="63.5" y2="619.381" gradientUnits="userSpaceOnUse">
<stop stop-color="#F7DD43"/>
<stop offset="1" stop-color="#F7DD43" stop-opacity="0"/>
</linearGradient>
<linearGradient id="paint23_linear_175_198" x1="63.5" y1="308" x2="63.5" y2="619.381" gradientUnits="userSpaceOnUse">
<stop stop-color="#F7DD43"/>
<stop offset="1" stop-color="#F7DD43" stop-opacity="0"/>
</linearGradient>
<linearGradient id="paint24_linear_175_198" x1="63.5" y1="308" x2="63.5" y2="619.381" gradientUnits="userSpaceOnUse">
<stop stop-color="#F7DD43"/>
<stop offset="1" stop-color="#F7DD43" stop-opacity="0"/>
</linearGradient>
<linearGradient id="paint25_linear_175_198" x1="63.5" y1="308" x2="63.5" y2="619.381" gradientUnits="userSpaceOnUse">
<stop stop-color="#F7DD43"/>
<stop offset="1" stop-color="#F7DD43" stop-opacity="0"/>
</linearGradient>
<linearGradient id="paint26_linear_175_198" x1="63.5" y1="308" x2="63.5" y2="619.381" gradientUnits="userSpaceOnUse">
<stop stop-color="#F7DD43"/>
<stop offset="1" stop-color="#F7DD43" stop-opacity="0"/>
</linearGradient>
<linearGradient id="paint27_linear_175_198" x1="63.5" y1="308" x2="63.5" y2="619.381" gradientUnits="userSpaceOnUse">
<stop stop-color="#F7DD43"/>
<stop offset="1" stop-color="#F7DD43" stop-opacity="0"/>
</linearGradient>
<linearGradient id="paint28_linear_175_198" x1="63.5" y1="308" x2="63.5" y2="619.381" gradientUnits="userSpaceOnUse">
<stop stop-color="#F7DD43"/>
<stop offset="1" stop-color="#F7DD43" stop-opacity="0"/>
</linearGradient>
<linearGradient id="paint29_linear_175_198" x1="63.5" y1="308" x2="63.5" y2="619.381" gradientUnits="userSpaceOnUse">
<stop stop-color="#F7DD43"/>
<stop offset="1" stop-color="#F7DD43" stop-opacity="0"/>
</linearGradient>
<linearGradient id="paint30_linear_175_198" x1="63.5" y1="308" x2="63.5" y2="619.381" gradientUnits="userSpaceOnUse">
<stop stop-color="#F7DD43"/>
<stop offset="1" stop-color="#F7DD43" stop-opacity="0"/>
</linearGradient>
<linearGradient id="paint31_linear_175_198" x1="63.5" y1="308" x2="63.5" y2="619.381" gradientUnits="userSpaceOnUse">
<stop stop-color="#F7DD43"/>
<stop offset="1" stop-color="#F7DD43" stop-opacity="0"/>
</linearGradient>
<linearGradient id="paint32_linear_175_198" x1="63.5" y1="308" x2="63.5" y2="619.381" gradientUnits="userSpaceOnUse">
<stop stop-color="#F7DD43"/>
<stop offset="1" stop-color="#F7DD43" stop-opacity="0"/>
</linearGradient>
<linearGradient id="paint33_linear_175_198" x1="63.5" y1="308" x2="63.5" y2="619.381" gradientUnits="userSpaceOnUse">
<stop stop-color="#F7DD43"/>
<stop offset="1" stop-color="#F7DD43" stop-opacity="0"/>
</linearGradient>
<linearGradient id="paint34_linear_175_198" x1="63.5" y1="308" x2="63.5" y2="619.381" gradientUnits="userSpaceOnUse">
<stop stop-color="#F7DD43"/>
<stop offset="1" stop-color="#F7DD43" stop-opacity="0"/>
</linearGradient>
<linearGradient id="paint35_linear_175_198" x1="63.5" y1="308" x2="63.5" y2="619.381" gradientUnits="userSpaceOnUse">
<stop stop-color="#F7DD43"/>
<stop offset="1" stop-color="#F7DD43" stop-opacity="0"/>
</linearGradient>
<linearGradient id="paint36_linear_175_198" x1="63.5" y1="308" x2="63.5" y2="619.381" gradientUnits="userSpaceOnUse">
<stop stop-color="#F7DD43"/>
<stop offset="1" stop-color="#F7DD43" stop-opacity="0"/>
</linearGradient>
<linearGradient id="paint37_linear_175_198" x1="63.5" y1="308" x2="63.5" y2="619.381" gradientUnits="userSpaceOnUse">
<stop stop-color="#F7DD43"/>
<stop offset="1" stop-color="#F7DD43" stop-opacity="0"/>
</linearGradient>
<linearGradient id="paint38_linear_175_198" x1="63.5" y1="308" x2="63.5" y2="619.381" gradientUnits="userSpaceOnUse">
<stop stop-color="#F7DD43"/>
<stop offset="1" stop-color="#F7DD43" stop-opacity="0"/>
</linearGradient>
<linearGradient id="paint39_linear_175_198" x1="63.5" y1="308" x2="63.5" y2="619.381" gradientUnits="userSpaceOnUse">
<stop stop-color="#F7DD43"/>
<stop offset="1" stop-color="#F7DD43" stop-opacity="0"/>
</linearGradient>
<linearGradient id="paint40_linear_175_198" x1="63.5" y1="308" x2="63.5" y2="619.381" gradientUnits="userSpaceOnUse">
<stop stop-color="#F7DD43"/>
<stop offset="1" stop-color="#F7DD43" stop-opacity="0"/>
</linearGradient>
<linearGradient id="paint41_linear_175_198" x1="63.5" y1="308" x2="63.5" y2="619.381" gradientUnits="userSpaceOnUse">
<stop stop-color="#F7DD43"/>
<stop offset="1" stop-color="#F7DD43" stop-opacity="0"/>
</linearGradient>
<linearGradient id="paint42_linear_175_198" x1="63.5" y1="308" x2="63.5" y2="619.381" gradientUnits="userSpaceOnUse">
<stop stop-color="#F7DD43"/>
<stop offset="1" stop-color="#F7DD43" stop-opacity="0"/>
</linearGradient>
<linearGradient id="paint43_linear_175_198" x1="63.5" y1="308" x2="63.5" y2="619.381" gradientUnits="userSpaceOnUse">
<stop stop-color="#F7DD43"/>
<stop offset="1" stop-color="#F7DD43" stop-opacity="0"/>
</linearGradient>
<linearGradient id="paint44_linear_175_198" x1="63.5" y1="308" x2="63.5" y2="619.381" gradientUnits="userSpaceOnUse">
<stop stop-color="#F7DD43"/>
<stop offset="1" stop-color="#F7DD43" stop-opacity="0"/>
</linearGradient>
<linearGradient id="paint45_linear_175_198" x1="63.5" y1="308" x2="63.5" y2="619.381" gradientUnits="userSpaceOnUse">
<stop stop-color="#F7DD43"/>
<stop offset="1" stop-color="#F7DD43" stop-opacity="0"/>
</linearGradient>
<linearGradient id="paint46_linear_175_198" x1="63.5" y1="308" x2="63.5" y2="619.381" gradientUnits="userSpaceOnUse">
<stop stop-color="#F7DD43"/>
<stop offset="1" stop-color="#F7DD43" stop-opacity="0"/>
</linearGradient>
<linearGradient id="paint47_linear_175_198" x1="949.5" y1="8" x2="949.5" y2="306.818" gradientUnits="userSpaceOnUse">
<stop stop-color="#F7DD43"/>
<stop offset="1" stop-color="#F7DD43" stop-opacity="0"/>
</linearGradient>
<linearGradient id="paint48_linear_175_198" x1="949.5" y1="8" x2="949.5" y2="306.818" gradientUnits="userSpaceOnUse">
<stop stop-color="#F7DD43"/>
<stop offset="1" stop-color="#F7DD43" stop-opacity="0"/>
</linearGradient>
<linearGradient id="paint49_linear_175_198" x1="949.5" y1="8" x2="949.5" y2="306.818" gradientUnits="userSpaceOnUse">
<stop stop-color="#F7DD43"/>
<stop offset="1" stop-color="#F7DD43" stop-opacity="0"/>
</linearGradient>
<linearGradient id="paint50_linear_175_198" x1="949.5" y1="8" x2="949.5" y2="306.818" gradientUnits="userSpaceOnUse">
<stop stop-color="#F7DD43"/>
<stop offset="1" stop-color="#F7DD43" stop-opacity="0"/>
</linearGradient>
<linearGradient id="paint51_linear_175_198" x1="949.5" y1="8" x2="949.5" y2="306.818" gradientUnits="userSpaceOnUse">
<stop stop-color="#F7DD43"/>
<stop offset="1" stop-color="#F7DD43" stop-opacity="0"/>
</linearGradient>
<linearGradient id="paint52_linear_175_198" x1="949.5" y1="8" x2="949.5" y2="306.818" gradientUnits="userSpaceOnUse">
<stop stop-color="#F7DD43"/>
<stop offset="1" stop-color="#F7DD43" stop-opacity="0"/>
</linearGradient>
<linearGradient id="paint53_linear_175_198" x1="949.5" y1="8" x2="949.5" y2="306.818" gradientUnits="userSpaceOnUse">
<stop stop-color="#F7DD43"/>
<stop offset="1" stop-color="#F7DD43" stop-opacity="0"/>
</linearGradient>
<linearGradient id="paint54_linear_175_198" x1="949.5" y1="8" x2="949.5" y2="306.818" gradientUnits="userSpaceOnUse">
<stop stop-color="#F7DD43"/>
<stop offset="1" stop-color="#F7DD43" stop-opacity="0"/>
</linearGradient>
<linearGradient id="paint55_linear_175_198" x1="949.5" y1="8" x2="949.5" y2="306.818" gradientUnits="userSpaceOnUse">
<stop stop-color="#F7DD43"/>
<stop offset="1" stop-color="#F7DD43" stop-opacity="0"/>
</linearGradient>
<linearGradient id="paint56_linear_175_198" x1="949.5" y1="8" x2="949.5" y2="306.818" gradientUnits="userSpaceOnUse">
<stop stop-color="#F7DD43"/>
<stop offset="1" stop-color="#F7DD43" stop-opacity="0"/>
</linearGradient>
<linearGradient id="paint57_linear_175_198" x1="949.5" y1="8" x2="949.5" y2="306.818" gradientUnits="userSpaceOnUse">
<stop stop-color="#F7DD43"/>
<stop offset="1" stop-color="#F7DD43" stop-opacity="0"/>
</linearGradient>
<linearGradient id="paint58_linear_175_198" x1="949.5" y1="8" x2="949.5" y2="306.818" gradientUnits="userSpaceOnUse">
<stop stop-color="#F7DD43"/>
<stop offset="1" stop-color="#F7DD43" stop-opacity="0"/>
</linearGradient>
<linearGradient id="paint59_linear_175_198" x1="949.5" y1="8" x2="949.5" y2="306.818" gradientUnits="userSpaceOnUse">
<stop stop-color="#F7DD43"/>
<stop offset="1" stop-color="#F7DD43" stop-opacity="0"/>
</linearGradient>
<linearGradient id="paint60_linear_175_198" x1="949.5" y1="8" x2="949.5" y2="306.818" gradientUnits="userSpaceOnUse">
<stop stop-color="#F7DD43"/>
<stop offset="1" stop-color="#F7DD43" stop-opacity="0"/>
</linearGradient>
<linearGradient id="paint61_linear_175_198" x1="949.5" y1="8" x2="949.5" y2="306.818" gradientUnits="userSpaceOnUse">
<stop stop-color="#F7DD43"/>
<stop offset="1" stop-color="#F7DD43" stop-opacity="0"/>
</linearGradient>
<linearGradient id="paint62_linear_175_198" x1="949.5" y1="8" x2="949.5" y2="306.818" gradientUnits="userSpaceOnUse">
<stop stop-color="#F7DD43"/>
<stop offset="1" stop-color="#F7DD43" stop-opacity="0"/>
</linearGradient>
<linearGradient id="paint63_linear_175_198" x1="949.5" y1="8" x2="949.5" y2="306.818" gradientUnits="userSpaceOnUse">
<stop stop-color="#F7DD43"/>
<stop offset="1" stop-color="#F7DD43" stop-opacity="0"/>
</linearGradient>
<linearGradient id="paint64_linear_175_198" x1="949.5" y1="8" x2="949.5" y2="306.818" gradientUnits="userSpaceOnUse">
<stop stop-color="#F7DD43"/>
<stop offset="1" stop-color="#F7DD43" stop-opacity="0"/>
</linearGradient>
<linearGradient id="paint65_linear_175_198" x1="949.5" y1="8" x2="949.5" y2="306.818" gradientUnits="userSpaceOnUse">
<stop stop-color="#F7DD43"/>
<stop offset="1" stop-color="#F7DD43" stop-opacity="0"/>
</linearGradient>
<linearGradient id="paint66_linear_175_198" x1="949.5" y1="8" x2="949.5" y2="306.818" gradientUnits="userSpaceOnUse">
<stop stop-color="#F7DD43"/>
<stop offset="1" stop-color="#F7DD43" stop-opacity="0"/>
</linearGradient>
<linearGradient id="paint67_linear_175_198" x1="949.5" y1="8" x2="949.5" y2="306.818" gradientUnits="userSpaceOnUse">
<stop stop-color="#F7DD43"/>
<stop offset="1" stop-color="#F7DD43" stop-opacity="0"/>
</linearGradient>
<linearGradient id="paint68_linear_175_198" x1="949.5" y1="8" x2="949.5" y2="306.818" gradientUnits="userSpaceOnUse">
<stop stop-color="#F7DD43"/>
<stop offset="1" stop-color="#F7DD43" stop-opacity="0"/>
</linearGradient>
<linearGradient id="paint69_linear_175_198" x1="949.5" y1="8" x2="949.5" y2="306.818" gradientUnits="userSpaceOnUse">
<stop stop-color="#F7DD43"/>
<stop offset="1" stop-color="#F7DD43" stop-opacity="0"/>
</linearGradient>
<linearGradient id="paint70_linear_175_198" x1="949.5" y1="8" x2="949.5" y2="306.818" gradientUnits="userSpaceOnUse">
<stop stop-color="#F7DD43"/>
<stop offset="1" stop-color="#F7DD43" stop-opacity="0"/>
</linearGradient>
<linearGradient id="paint71_linear_175_198" x1="949.5" y1="8" x2="949.5" y2="306.818" gradientUnits="userSpaceOnUse">
<stop stop-color="#F7DD43"/>
<stop offset="1" stop-color="#F7DD43" stop-opacity="0"/>
</linearGradient>
<linearGradient id="paint72_linear_175_198" x1="949.5" y1="8" x2="949.5" y2="306.818" gradientUnits="userSpaceOnUse">
<stop stop-color="#F7DD43"/>
<stop offset="1" stop-color="#F7DD43" stop-opacity="0"/>
</linearGradient>
<linearGradient id="paint73_linear_175_198" x1="949.5" y1="8" x2="949.5" y2="306.818" gradientUnits="userSpaceOnUse">
<stop stop-color="#F7DD43"/>
<stop offset="1" stop-color="#F7DD43" stop-opacity="0"/>
</linearGradient>
<linearGradient id="paint74_linear_175_198" x1="949.5" y1="8" x2="949.5" y2="306.818" gradientUnits="userSpaceOnUse">
<stop stop-color="#F7DD43"/>
<stop offset="1" stop-color="#F7DD43" stop-opacity="0"/>
</linearGradient>
<linearGradient id="paint75_linear_175_198" x1="949.5" y1="8" x2="949.5" y2="306.818" gradientUnits="userSpaceOnUse">
<stop stop-color="#F7DD43"/>
<stop offset="1" stop-color="#F7DD43" stop-opacity="0"/>
</linearGradient>
<linearGradient id="paint76_linear_175_198" x1="949.5" y1="8" x2="949.5" y2="306.818" gradientUnits="userSpaceOnUse">
<stop stop-color="#F7DD43"/>
<stop offset="1" stop-color="#F7DD43" stop-opacity="0"/>
</linearGradient>
<linearGradient id="paint77_linear_175_198" x1="949.5" y1="8" x2="949.5" y2="306.818" gradientUnits="userSpaceOnUse">
<stop stop-color="#F7DD43"/>
<stop offset="1" stop-color="#F7DD43" stop-opacity="0"/>
</linearGradient>
<linearGradient id="paint78_linear_175_198" x1="949.5" y1="8" x2="949.5" y2="306.818" gradientUnits="userSpaceOnUse">
<stop stop-color="#F7DD43"/>
<stop offset="1" stop-color="#F7DD43" stop-opacity="0"/>
</linearGradient>
<linearGradient id="paint79_linear_175_198" x1="949.5" y1="8" x2="949.5" y2="306.818" gradientUnits="userSpaceOnUse">
<stop stop-color="#F7DD43"/>
<stop offset="1" stop-color="#F7DD43" stop-opacity="0"/>
</linearGradient>
<linearGradient id="paint80_linear_175_198" x1="949.5" y1="8" x2="949.5" y2="306.818" gradientUnits="userSpaceOnUse">
<stop stop-color="#F7DD43"/>
<stop offset="1" stop-color="#F7DD43" stop-opacity="0"/>
</linearGradient>
<linearGradient id="paint81_linear_175_198" x1="949.5" y1="8" x2="949.5" y2="306.818" gradientUnits="userSpaceOnUse">
<stop stop-color="#F7DD43"/>
<stop offset="1" stop-color="#F7DD43" stop-opacity="0"/>
</linearGradient>
<linearGradient id="paint82_linear_175_198" x1="949.5" y1="8" x2="949.5" y2="306.818" gradientUnits="userSpaceOnUse">
<stop stop-color="#F7DD43"/>
<stop offset="1" stop-color="#F7DD43" stop-opacity="0"/>
</linearGradient>
<linearGradient id="paint83_linear_175_198" x1="949.5" y1="8" x2="949.5" y2="306.818" gradientUnits="userSpaceOnUse">
<stop stop-color="#F7DD43"/>
<stop offset="1" stop-color="#F7DD43" stop-opacity="0"/>
</linearGradient>
<linearGradient id="paint84_linear_175_198" x1="949.5" y1="8" x2="949.5" y2="306.818" gradientUnits="userSpaceOnUse">
<stop stop-color="#F7DD43"/>
<stop offset="1" stop-color="#F7DD43" stop-opacity="0"/>
</linearGradient>
<linearGradient id="paint85_linear_175_198" x1="949.5" y1="8" x2="949.5" y2="306.818" gradientUnits="userSpaceOnUse">
<stop stop-color="#F7DD43"/>
<stop offset="1" stop-color="#F7DD43" stop-opacity="0"/>
</linearGradient>
<linearGradient id="paint86_linear_175_198" x1="949.5" y1="8" x2="949.5" y2="306.818" gradientUnits="userSpaceOnUse">
<stop stop-color="#F7DD43"/>
<stop offset="1" stop-color="#F7DD43" stop-opacity="0"/>
</linearGradient>
<linearGradient id="paint87_linear_175_198" x1="949.5" y1="8" x2="949.5" y2="306.818" gradientUnits="userSpaceOnUse">
<stop stop-color="#F7DD43"/>
<stop offset="1" stop-color="#F7DD43" stop-opacity="0"/>
</linearGradient>
<linearGradient id="paint88_linear_175_198" x1="949.5" y1="8" x2="949.5" y2="306.818" gradientUnits="userSpaceOnUse">
<stop stop-color="#F7DD43"/>
<stop offset="1" stop-color="#F7DD43" stop-opacity="0"/>
</linearGradient>
<linearGradient id="paint89_linear_175_198" x1="949.5" y1="8" x2="949.5" y2="306.818" gradientUnits="userSpaceOnUse">
<stop stop-color="#F7DD43"/>
<stop offset="1" stop-color="#F7DD43" stop-opacity="0"/>
</linearGradient>
<linearGradient id="paint90_linear_175_198" x1="949.5" y1="8" x2="949.5" y2="306.818" gradientUnits="userSpaceOnUse">
<stop stop-color="#F7DD43"/>
<stop offset="1" stop-color="#F7DD43" stop-opacity="0"/>
</linearGradient>
<linearGradient id="paint91_linear_175_198" x1="949.5" y1="8" x2="949.5" y2="306.818" gradientUnits="userSpaceOnUse">
<stop stop-color="#F7DD43"/>
<stop offset="1" stop-color="#F7DD43" stop-opacity="0"/>
</linearGradient>
<linearGradient id="paint92_linear_175_198" x1="949.5" y1="8" x2="949.5" y2="306.818" gradientUnits="userSpaceOnUse">
<stop stop-color="#F7DD43"/>
<stop offset="1" stop-color="#F7DD43" stop-opacity="0"/>
</linearGradient>
<linearGradient id="paint93_linear_175_198" x1="949.5" y1="8" x2="949.5" y2="306.818" gradientUnits="userSpaceOnUse">
<stop stop-color="#F7DD43"/>
<stop offset="1" stop-color="#F7DD43" stop-opacity="0"/>
</linearGradient>
</defs>
</svg>
