<svg width="329" height="102" viewBox="0 0 329 102" fill="none" xmlns="http://www.w3.org/2000/svg">
<path fill-rule="evenodd" clip-rule="evenodd" d="M121.013 9.2816V7.20316L115.267 9.33873H115.256V11.4716H115.267L121.013 13.6072V11.526L118.066 10.3997L121.013 9.27888V9.2816Z" fill="#F7DD43"/>
<path fill-rule="evenodd" clip-rule="evenodd" d="M154.292 13.5037V11.4253L157.236 10.3072L154.292 9.18905V7.1106L160.03 9.24618H160.043V11.3817H160.03L154.292 13.5064V13.5037ZM151.827 4.16977L148.454 15H150.456L153.83 4.16977H151.827Z" fill="#F7DD43"/>
<path fill-rule="evenodd" clip-rule="evenodd" d="M129.454 6.91747C130.026 7.54317 130.325 8.3702 130.29 9.21627V13.8302H128.287V9.64066C128.312 9.17274 128.162 8.7157 127.868 8.35116C127.591 8.02742 127.18 7.84787 126.753 7.86691C125.499 7.86691 124.87 8.73746 124.87 10.4758V13.8302H122.868V6.25639H124.87V6.93923C125.507 6.32168 126.369 5.99251 127.256 6.03059C128.083 5.99523 128.883 6.31896 129.454 6.91747V6.91747Z" fill="#F7DD43"/>
<path fill-rule="evenodd" clip-rule="evenodd" d="M132.841 3V13.8302H134.844V3H132.841Z" fill="#F7DD43"/>
<path fill-rule="evenodd" clip-rule="evenodd" d="M146.166 13.8302H144.496L142.858 9.36862L141.204 13.8302H139.534L136.726 6.2428H138.867L140.445 10.7806L142.072 6.2428H143.636L145.263 10.7942L146.841 6.2428H148.982L146.172 13.8302H146.166Z" fill="#F7DD43"/>
<path d="M169.58 17.9981C167.653 17.9981 165.629 17.6331 164.043 16.754V1.24411C165.605 0.389878 167.628 2.85548e-05 169.58 2.85548e-05C171.531 2.85548e-05 173.507 0.365035 175.066 1.24411V7.19505H171.139V3.14558C170.676 2.95066 170.115 2.87804 169.555 2.87804C168.995 2.87804 168.481 2.95066 167.993 3.14558V14.8525C168.456 15.0475 168.993 15.1201 169.555 15.1201C170.117 15.1201 170.652 15.0475 171.139 14.8525V10.805H175.066V16.7559C173.53 17.6102 171.506 17.9752 169.58 18V17.9981Z" fill="#F7DD43"/>
<path d="M182.431 17.9981C180.358 17.9981 178.359 17.5585 176.773 16.6565V1.3167C178.334 0.439536 180.335 0 182.431 0C184.528 0 186.479 0.414693 188.04 1.3167V16.6565C186.504 17.5585 184.48 17.9732 182.431 17.9981ZM184.115 3.19524C183.652 3.00031 183.091 2.90285 182.408 2.90285C181.726 2.90285 181.189 3.00031 180.725 3.19524V14.7799C181.187 14.9997 181.749 15.0971 182.408 15.0971C183.068 15.0971 183.628 14.9997 184.115 14.7799V3.19524Z" fill="#F7DD43"/>
<path d="M194.893 11.4127H193.844V17.7783H189.869V0.219779H194.893C197.284 0.219779 199.088 0.707092 200.502 1.70656V9.92589C199.113 10.9024 197.282 11.4127 194.893 11.4127ZM196.552 3.24303C196.187 2.97548 195.698 2.85318 194.868 2.85318H193.794V8.77927H194.868C195.673 8.77927 196.16 8.65697 196.552 8.41427V3.24303Z" fill="#F7DD43"/>
<path d="M208.817 17.7783V11.4127H205.891V17.7783H201.941V1.29185C203.38 0.437625 205.404 0 207.355 0C209.306 0 211.305 0.439537 212.744 1.29185V17.7783H208.817ZM208.817 3.04809C208.402 2.85316 207.89 2.7557 207.353 2.7557C206.816 2.7557 206.304 2.85316 205.889 3.04809V8.63211H208.815V3.04809H208.817Z" fill="#F7DD43"/>
<path d="M13.0186 47.9248H17.3984C17.3105 49.3604 16.915 50.6348 16.2119 51.748C15.5186 52.8613 14.5469 53.7305 13.2969 54.3555C12.0566 54.9805 10.5625 55.293 8.81445 55.293C7.44727 55.293 6.22168 55.0586 5.1377 54.5898C4.05371 54.1113 3.12598 53.4277 2.35449 52.5391C1.59277 51.6504 1.01172 50.5762 0.611328 49.3164C0.210938 48.0566 0.0107422 46.6455 0.0107422 45.083V43.6035C0.0107422 42.041 0.21582 40.6299 0.625977 39.3701C1.0459 38.1006 1.6416 37.0215 2.41309 36.1328C3.19434 35.2441 4.12695 34.5605 5.21094 34.082C6.29492 33.6035 7.50586 33.3643 8.84375 33.3643C10.6211 33.3643 12.1201 33.6865 13.3408 34.3311C14.5713 34.9756 15.5234 35.8643 16.1973 36.9971C16.8809 38.1299 17.291 39.4189 17.4277 40.8643H13.0332C12.9844 40.0049 12.8135 39.2773 12.5205 38.6816C12.2275 38.0762 11.7832 37.6221 11.1875 37.3193C10.6016 37.0068 9.82031 36.8506 8.84375 36.8506C8.11133 36.8506 7.47168 36.9873 6.9248 37.2607C6.37793 37.5342 5.91895 37.9492 5.54785 38.5059C5.17676 39.0625 4.89844 39.7656 4.71289 40.6152C4.53711 41.4551 4.44922 42.4414 4.44922 43.5742V45.083C4.44922 46.1865 4.53223 47.1582 4.69824 47.998C4.86426 48.8281 5.11816 49.5312 5.45996 50.1074C5.81152 50.6738 6.26074 51.1035 6.80762 51.3965C7.36426 51.6797 8.0332 51.8213 8.81445 51.8213C9.73242 51.8213 10.4893 51.6748 11.085 51.3818C11.6807 51.0889 12.1348 50.6543 12.4473 50.0781C12.7695 49.502 12.96 48.7842 13.0186 47.9248ZM28.9561 37.3193L23.1553 55H18.4824L26.4072 33.6719H29.3809L28.9561 37.3193ZM33.7754 55L27.96 37.3193L27.4912 33.6719H30.4941L38.4629 55H33.7754ZM33.5117 47.0605V50.5029H22.2471V47.0605H33.5117ZM54.1514 51.5723V55H43.4141V51.5723H54.1514ZM44.835 33.6719V55H40.4404V33.6719H44.835ZM70.9824 51.5723V55H59.6299V51.5723H70.9824ZM61.0654 33.6719V55H56.6709V33.6719H61.0654ZM69.5029 42.3584V45.6982H59.6299V42.3584H69.5029ZM70.9678 33.6719V37.1143H59.6299V33.6719H70.9678ZM90.9043 33.6719V55H86.5098L77.9404 40.7031V55H73.5459V33.6719H77.9404L86.5244 47.9834V33.6719H90.9043ZM101.275 55H96.6318L96.6611 51.5723H101.275C102.428 51.5723 103.399 51.3135 104.19 50.7959C104.981 50.2686 105.577 49.502 105.978 48.4961C106.388 47.4902 106.593 46.2744 106.593 44.8486V43.8086C106.593 42.7148 106.476 41.7529 106.241 40.9229C106.017 40.0928 105.68 39.3945 105.23 38.8281C104.781 38.2617 104.229 37.8369 103.575 37.5537C102.921 37.2607 102.169 37.1143 101.319 37.1143H96.5439V33.6719H101.319C102.745 33.6719 104.049 33.916 105.23 34.4043C106.422 34.8828 107.452 35.5713 108.321 36.4697C109.19 37.3682 109.859 38.4424 110.328 39.6924C110.807 40.9326 111.046 42.3145 111.046 43.8379V44.8486C111.046 46.3623 110.807 47.7441 110.328 48.9941C109.859 50.2441 109.19 51.3184 108.321 52.2168C107.462 53.1055 106.432 53.7939 105.23 54.2822C104.039 54.7607 102.721 55 101.275 55ZM99.1221 33.6719V55H94.7275V33.6719H99.1221ZM122.589 37.3193L116.788 55H112.115L120.04 33.6719H123.014L122.589 37.3193ZM127.408 55L121.593 37.3193L121.124 33.6719H124.127L132.096 55H127.408ZM127.145 47.0605V50.5029H115.88V47.0605H127.145ZM120.113 32.4707L122.984 27.959H127.569L123.541 32.4707H120.113ZM134.073 33.6719H142.027C143.658 33.6719 145.06 33.916 146.231 34.4043C147.413 34.8926 148.321 35.6152 148.956 36.5723C149.591 37.5293 149.908 38.7061 149.908 40.1025C149.908 41.2451 149.713 42.2266 149.322 43.0469C148.941 43.8574 148.399 44.5361 147.696 45.083C147.003 45.6201 146.188 46.0498 145.25 46.3721L143.858 47.1045H136.944L136.915 43.6768H142.057C142.828 43.6768 143.468 43.54 143.976 43.2666C144.483 42.9932 144.864 42.6123 145.118 42.124C145.382 41.6357 145.514 41.0693 145.514 40.4248C145.514 39.7412 145.387 39.1504 145.133 38.6523C144.879 38.1543 144.493 37.7734 143.976 37.5098C143.458 37.2461 142.809 37.1143 142.027 37.1143H138.468V55H134.073V33.6719ZM145.997 55L141.134 45.4932L145.777 45.4639L150.699 54.7949V55H145.997ZM157.965 33.6719V55H153.585V33.6719H157.965ZM179.601 43.8379V44.8486C179.601 46.4697 179.381 47.9248 178.941 49.2139C178.502 50.5029 177.882 51.6016 177.081 52.5098C176.28 53.4082 175.323 54.0967 174.21 54.5752C173.106 55.0537 171.881 55.293 170.533 55.293C169.195 55.293 167.97 55.0537 166.856 54.5752C165.753 54.0967 164.796 53.4082 163.985 52.5098C163.175 51.6016 162.545 50.5029 162.096 49.2139C161.656 47.9248 161.437 46.4697 161.437 44.8486V43.8379C161.437 42.207 161.656 40.752 162.096 39.4727C162.535 38.1836 163.155 37.085 163.956 36.1768C164.767 35.2686 165.724 34.5752 166.827 34.0967C167.94 33.6182 169.166 33.3789 170.504 33.3789C171.852 33.3789 173.077 33.6182 174.181 34.0967C175.294 34.5752 176.251 35.2686 177.052 36.1768C177.862 37.085 178.487 38.1836 178.927 39.4727C179.376 40.752 179.601 42.207 179.601 43.8379ZM175.162 44.8486V43.8086C175.162 42.6758 175.06 41.6797 174.854 40.8203C174.649 39.9609 174.347 39.2383 173.946 38.6523C173.546 38.0664 173.058 37.627 172.481 37.334C171.905 37.0312 171.246 36.8799 170.504 36.8799C169.762 36.8799 169.103 37.0312 168.526 37.334C167.96 37.627 167.477 38.0664 167.076 38.6523C166.686 39.2383 166.388 39.9609 166.183 40.8203C165.978 41.6797 165.875 42.6758 165.875 43.8086V44.8486C165.875 45.9717 165.978 46.9678 166.183 47.8369C166.388 48.6963 166.69 49.4238 167.091 50.0195C167.491 50.6055 167.979 51.0498 168.556 51.3525C169.132 51.6553 169.791 51.8066 170.533 51.8066C171.275 51.8066 171.935 51.6553 172.511 51.3525C173.087 51.0498 173.57 50.6055 173.961 50.0195C174.352 49.4238 174.649 48.6963 174.854 47.8369C175.06 46.9678 175.162 45.9717 175.162 44.8486ZM196.783 55H192.14L192.169 51.5723H196.783C197.936 51.5723 198.907 51.3135 199.698 50.7959C200.489 50.2686 201.085 49.502 201.485 48.4961C201.896 47.4902 202.101 46.2744 202.101 44.8486V43.8086C202.101 42.7148 201.983 41.7529 201.749 40.9229C201.524 40.0928 201.188 39.3945 200.738 38.8281C200.289 38.2617 199.737 37.8369 199.083 37.5537C198.429 37.2607 197.677 37.1143 196.827 37.1143H192.052V33.6719H196.827C198.253 33.6719 199.557 33.916 200.738 34.4043C201.93 34.8828 202.96 35.5713 203.829 36.4697C204.698 37.3682 205.367 38.4424 205.836 39.6924C206.314 40.9326 206.554 42.3145 206.554 43.8379V44.8486C206.554 46.3623 206.314 47.7441 205.836 48.9941C205.367 50.2441 204.698 51.3184 203.829 52.2168C202.97 53.1055 201.939 53.7939 200.738 54.2822C199.547 54.7607 198.229 55 196.783 55ZM194.63 33.6719V55H190.235V33.6719H194.63ZM224.059 51.5723V55H212.706V51.5723H224.059ZM214.142 33.6719V55H209.747V33.6719H214.142ZM222.579 42.3584V45.6982H212.706V42.3584H222.579ZM224.044 33.6719V37.1143H212.706V33.6719H224.044ZM242.721 48.4521V33.6719H247.101V48.4521C247.101 49.8779 246.788 51.1035 246.163 52.1289C245.538 53.1445 244.684 53.9258 243.6 54.4727C242.525 55.0195 241.314 55.293 239.967 55.293C238.57 55.293 237.335 55.0586 236.261 54.5898C235.187 54.1211 234.342 53.4033 233.727 52.4365C233.111 51.46 232.804 50.2246 232.804 48.7305H237.213C237.213 49.5117 237.32 50.1318 237.535 50.5908C237.76 51.0498 238.077 51.377 238.487 51.5723C238.897 51.7676 239.391 51.8652 239.967 51.8652C240.523 51.8652 241.007 51.7334 241.417 51.4697C241.827 51.2061 242.145 50.8203 242.369 50.3125C242.604 49.8047 242.721 49.1846 242.721 48.4521ZM268.37 43.8379V44.8486C268.37 46.4697 268.15 47.9248 267.711 49.2139C267.271 50.5029 266.651 51.6016 265.851 52.5098C265.05 53.4082 264.093 54.0967 262.979 54.5752C261.876 55.0537 260.65 55.293 259.303 55.293C257.965 55.293 256.739 55.0537 255.626 54.5752C254.522 54.0967 253.565 53.4082 252.755 52.5098C251.944 51.6016 251.314 50.5029 250.865 49.2139C250.426 47.9248 250.206 46.4697 250.206 44.8486V43.8379C250.206 42.207 250.426 40.752 250.865 39.4727C251.305 38.1836 251.925 37.085 252.726 36.1768C253.536 35.2686 254.493 34.5752 255.597 34.0967C256.71 33.6182 257.936 33.3789 259.273 33.3789C260.621 33.3789 261.847 33.6182 262.95 34.0967C264.063 34.5752 265.021 35.2686 265.821 36.1768C266.632 37.085 267.257 38.1836 267.696 39.4727C268.146 40.752 268.37 42.207 268.37 43.8379ZM263.932 44.8486V43.8086C263.932 42.6758 263.829 41.6797 263.624 40.8203C263.419 39.9609 263.116 39.2383 262.716 38.6523C262.315 38.0664 261.827 37.627 261.251 37.334C260.675 37.0312 260.016 36.8799 259.273 36.8799C258.531 36.8799 257.872 37.0312 257.296 37.334C256.729 37.627 256.246 38.0664 255.846 38.6523C255.455 39.2383 255.157 39.9609 254.952 40.8203C254.747 41.6797 254.645 42.6758 254.645 43.8086V44.8486C254.645 45.9717 254.747 46.9678 254.952 47.8369C255.157 48.6963 255.46 49.4238 255.86 50.0195C256.261 50.6055 256.749 51.0498 257.325 51.3525C257.901 51.6553 258.561 51.8066 259.303 51.8066C260.045 51.8066 260.704 51.6553 261.28 51.3525C261.856 51.0498 262.34 50.6055 262.73 50.0195C263.121 49.4238 263.419 48.6963 263.624 47.8369C263.829 46.9678 263.932 45.9717 263.932 44.8486ZM288.438 43.8525V52.3047C288.106 52.7051 287.594 53.1396 286.9 53.6084C286.207 54.0674 285.313 54.4629 284.22 54.7949C283.126 55.127 281.803 55.293 280.25 55.293C278.873 55.293 277.618 55.0684 276.485 54.6191C275.353 54.1602 274.376 53.4912 273.556 52.6123C272.745 51.7334 272.12 50.6592 271.681 49.3896C271.241 48.1104 271.021 46.6504 271.021 45.0098V43.6768C271.021 42.0361 271.231 40.5762 271.651 39.2969C272.081 38.0176 272.691 36.9385 273.482 36.0596C274.273 35.1807 275.216 34.5117 276.31 34.0527C277.403 33.5938 278.619 33.3643 279.957 33.3643C281.812 33.3643 283.336 33.667 284.527 34.2725C285.719 34.8682 286.627 35.6982 287.252 36.7627C287.887 37.8174 288.277 39.0283 288.424 40.3955H284.161C284.054 39.6729 283.849 39.043 283.546 38.5059C283.243 37.9688 282.809 37.5488 282.242 37.2461C281.686 36.9434 280.963 36.792 280.074 36.792C279.342 36.792 278.688 36.9434 278.111 37.2461C277.545 37.5391 277.066 37.9736 276.676 38.5498C276.285 39.126 275.987 39.8389 275.782 40.6885C275.577 41.5381 275.475 42.5244 275.475 43.6475V45.0098C275.475 46.123 275.582 47.1094 275.797 47.9688C276.012 48.8184 276.329 49.5361 276.749 50.1221C277.179 50.6982 277.706 51.1328 278.331 51.4258C278.956 51.7188 279.684 51.8652 280.514 51.8652C281.207 51.8652 281.783 51.8066 282.242 51.6895C282.711 51.5723 283.087 51.4307 283.37 51.2646C283.663 51.0889 283.888 50.9229 284.044 50.7666V46.9873H280.03V43.8525H288.438ZM309.503 43.8379V44.8486C309.503 46.4697 309.283 47.9248 308.844 49.2139C308.404 50.5029 307.784 51.6016 306.983 52.5098C306.183 53.4082 305.226 54.0967 304.112 54.5752C303.009 55.0537 301.783 55.293 300.436 55.293C299.098 55.293 297.872 55.0537 296.759 54.5752C295.655 54.0967 294.698 53.4082 293.888 52.5098C293.077 51.6016 292.447 50.5029 291.998 49.2139C291.559 47.9248 291.339 46.4697 291.339 44.8486V43.8379C291.339 42.207 291.559 40.752 291.998 39.4727C292.438 38.1836 293.058 37.085 293.858 36.1768C294.669 35.2686 295.626 34.5752 296.729 34.0967C297.843 33.6182 299.068 33.3789 300.406 33.3789C301.754 33.3789 302.979 33.6182 304.083 34.0967C305.196 34.5752 306.153 35.2686 306.954 36.1768C307.765 37.085 308.39 38.1836 308.829 39.4727C309.278 40.752 309.503 42.207 309.503 43.8379ZM305.064 44.8486V43.8086C305.064 42.6758 304.962 41.6797 304.757 40.8203C304.552 39.9609 304.249 39.2383 303.849 38.6523C303.448 38.0664 302.96 37.627 302.384 37.334C301.808 37.0312 301.148 36.8799 300.406 36.8799C299.664 36.8799 299.005 37.0312 298.429 37.334C297.862 37.627 297.379 38.0664 296.979 38.6523C296.588 39.2383 296.29 39.9609 296.085 40.8203C295.88 41.6797 295.777 42.6758 295.777 43.8086V44.8486C295.777 45.9717 295.88 46.9678 296.085 47.8369C296.29 48.6963 296.593 49.4238 296.993 50.0195C297.394 50.6055 297.882 51.0498 298.458 51.3525C299.034 51.6553 299.693 51.8066 300.436 51.8066C301.178 51.8066 301.837 51.6553 302.413 51.3525C302.989 51.0498 303.473 50.6055 303.863 50.0195C304.254 49.4238 304.552 48.6963 304.757 47.8369C304.962 46.9678 305.064 45.9717 305.064 44.8486ZM323.771 49.4189C323.771 49.0381 323.712 48.6963 323.595 48.3936C323.487 48.0811 323.282 47.7979 322.979 47.5439C322.677 47.2803 322.252 47.0215 321.705 46.7676C321.158 46.5137 320.45 46.25 319.581 45.9766C318.614 45.6641 317.696 45.3125 316.827 44.9219C315.968 44.5312 315.206 44.0771 314.542 43.5596C313.888 43.0322 313.37 42.4219 312.989 41.7285C312.618 41.0352 312.433 40.2295 312.433 39.3115C312.433 38.4229 312.628 37.6172 313.019 36.8945C313.409 36.1621 313.956 35.5371 314.659 35.0195C315.362 34.4922 316.192 34.0869 317.149 33.8037C318.116 33.5205 319.176 33.3789 320.328 33.3789C321.9 33.3789 323.272 33.6621 324.444 34.2285C325.616 34.7949 326.524 35.5713 327.169 36.5576C327.823 37.5439 328.15 38.6719 328.15 39.9414H323.785C323.785 39.3164 323.653 38.7695 323.39 38.3008C323.136 37.8223 322.745 37.4463 322.218 37.1729C321.7 36.8994 321.046 36.7627 320.255 36.7627C319.493 36.7627 318.858 36.8799 318.351 37.1143C317.843 37.3389 317.462 37.6465 317.208 38.0371C316.954 38.418 316.827 38.8477 316.827 39.3262C316.827 39.6875 316.915 40.0146 317.091 40.3076C317.276 40.6006 317.55 40.874 317.911 41.1279C318.272 41.3818 318.717 41.6211 319.244 41.8457C319.771 42.0703 320.382 42.29 321.075 42.5049C322.237 42.8564 323.258 43.252 324.137 43.6914C325.025 44.1309 325.768 44.624 326.363 45.1709C326.959 45.7178 327.408 46.3379 327.711 47.0312C328.014 47.7246 328.165 48.5107 328.165 49.3896C328.165 50.3174 327.984 51.1475 327.623 51.8799C327.262 52.6123 326.739 53.2324 326.056 53.7402C325.372 54.248 324.557 54.6338 323.609 54.8975C322.662 55.1611 321.603 55.293 320.431 55.293C319.376 55.293 318.336 55.1562 317.311 54.8828C316.285 54.5996 315.353 54.1748 314.513 53.6084C313.683 53.042 313.019 52.3193 312.521 51.4404C312.022 50.5615 311.773 49.5215 311.773 48.3203H316.183C316.183 48.9844 316.285 49.5459 316.49 50.0049C316.695 50.4639 316.983 50.835 317.354 51.1182C317.735 51.4014 318.185 51.6064 318.702 51.7334C319.229 51.8604 319.806 51.9238 320.431 51.9238C321.192 51.9238 321.817 51.8164 322.306 51.6016C322.804 51.3867 323.17 51.0889 323.404 50.708C323.648 50.3271 323.771 49.8975 323.771 49.4189ZM101.393 85.9248H105.772C105.685 87.3604 105.289 88.6348 104.586 89.748C103.893 90.8613 102.921 91.7305 101.671 92.3555C100.431 92.9805 98.9365 93.293 97.1885 93.293C95.8213 93.293 94.5957 93.0586 93.5117 92.5898C92.4277 92.1113 91.5 91.4277 90.7285 90.5391C89.9668 89.6504 89.3857 88.5762 88.9854 87.3164C88.585 86.0566 88.3848 84.6455 88.3848 83.083V81.6035C88.3848 80.041 88.5898 78.6299 89 77.3701C89.4199 76.1006 90.0156 75.0215 90.7871 74.1328C91.5684 73.2441 92.501 72.5605 93.585 72.082C94.6689 71.6035 95.8799 71.3643 97.2178 71.3643C98.9951 71.3643 100.494 71.6865 101.715 72.3311C102.945 72.9756 103.897 73.8643 104.571 74.9971C105.255 76.1299 105.665 77.4189 105.802 78.8643H101.407C101.358 78.0049 101.188 77.2773 100.895 76.6816C100.602 76.0762 100.157 75.6221 99.5615 75.3193C98.9756 75.0068 98.1943 74.8506 97.2178 74.8506C96.4854 74.8506 95.8457 74.9873 95.2988 75.2607C94.752 75.5342 94.293 75.9492 93.9219 76.5059C93.5508 77.0625 93.2725 77.7656 93.0869 78.6152C92.9111 79.4551 92.8232 80.4414 92.8232 81.5742V83.083C92.8232 84.1865 92.9062 85.1582 93.0723 85.998C93.2383 86.8281 93.4922 87.5312 93.834 88.1074C94.1855 88.6738 94.6348 89.1035 95.1816 89.3965C95.7383 89.6797 96.4072 89.8213 97.1885 89.8213C98.1064 89.8213 98.8633 89.6748 99.459 89.3818C100.055 89.0889 100.509 88.6543 100.821 88.0781C101.144 87.502 101.334 86.7842 101.393 85.9248ZM126.178 81.8379V82.8486C126.178 84.4697 125.958 85.9248 125.519 87.2139C125.079 88.5029 124.459 89.6016 123.658 90.5098C122.857 91.4082 121.9 92.0967 120.787 92.5752C119.684 93.0537 118.458 93.293 117.11 93.293C115.772 93.293 114.547 93.0537 113.434 92.5752C112.33 92.0967 111.373 91.4082 110.562 90.5098C109.752 89.6016 109.122 88.5029 108.673 87.2139C108.233 85.9248 108.014 84.4697 108.014 82.8486V81.8379C108.014 80.207 108.233 78.752 108.673 77.4727C109.112 76.1836 109.732 75.085 110.533 74.1768C111.344 73.2686 112.301 72.5752 113.404 72.0967C114.518 71.6182 115.743 71.3789 117.081 71.3789C118.429 71.3789 119.654 71.6182 120.758 72.0967C121.871 72.5752 122.828 73.2686 123.629 74.1768C124.439 75.085 125.064 76.1836 125.504 77.4727C125.953 78.752 126.178 80.207 126.178 81.8379ZM121.739 82.8486V81.8086C121.739 80.6758 121.637 79.6797 121.432 78.8203C121.227 77.9609 120.924 77.2383 120.523 76.6523C120.123 76.0664 119.635 75.627 119.059 75.334C118.482 75.0312 117.823 74.8799 117.081 74.8799C116.339 74.8799 115.68 75.0312 115.104 75.334C114.537 75.627 114.054 76.0664 113.653 76.6523C113.263 77.2383 112.965 77.9609 112.76 78.8203C112.555 79.6797 112.452 80.6758 112.452 81.8086V82.8486C112.452 83.9717 112.555 84.9678 112.76 85.8369C112.965 86.6963 113.268 87.4238 113.668 88.0195C114.068 88.6055 114.557 89.0498 115.133 89.3525C115.709 89.6553 116.368 89.8066 117.11 89.8066C117.853 89.8066 118.512 89.6553 119.088 89.3525C119.664 89.0498 120.147 88.6055 120.538 88.0195C120.929 87.4238 121.227 86.6963 121.432 85.8369C121.637 84.9678 121.739 83.9717 121.739 82.8486ZM137.647 85.3975H132.213V81.9697H137.647C138.487 81.9697 139.171 81.833 139.698 81.5596C140.226 81.2764 140.611 80.8857 140.855 80.3877C141.1 79.8896 141.222 79.3281 141.222 78.7031C141.222 78.0684 141.1 77.4775 140.855 76.9307C140.611 76.3838 140.226 75.9443 139.698 75.6123C139.171 75.2803 138.487 75.1143 137.647 75.1143H133.736V93H129.342V71.6719H137.647C139.317 71.6719 140.748 71.9746 141.939 72.5801C143.141 73.1758 144.059 74.001 144.693 75.0557C145.328 76.1104 145.646 77.3164 145.646 78.6738C145.646 80.0508 145.328 81.2422 144.693 82.248C144.059 83.2539 143.141 84.0303 141.939 84.5771C140.748 85.124 139.317 85.3975 137.647 85.3975ZM154.918 75.3193L149.117 93H144.444L152.369 71.6719H155.343L154.918 75.3193ZM159.737 93L153.922 75.3193L153.453 71.6719H156.456L164.425 93H159.737ZM159.474 85.0605V88.5029H148.209V85.0605H159.474ZM188.023 89.7041V93H173.434V90.1875L180.333 82.79C181.026 82.0186 181.573 81.3398 181.974 80.7539C182.374 80.1582 182.662 79.626 182.838 79.1572C183.023 78.6787 183.116 78.2246 183.116 77.7949C183.116 77.1504 183.009 76.5986 182.794 76.1396C182.579 75.6709 182.262 75.3096 181.842 75.0557C181.432 74.8018 180.924 74.6748 180.318 74.6748C179.674 74.6748 179.117 74.8311 178.648 75.1436C178.189 75.4561 177.838 75.8906 177.594 76.4473C177.359 77.0039 177.242 77.6338 177.242 78.3369H173.009C173.009 77.0674 173.312 75.9053 173.917 74.8506C174.522 73.7861 175.377 72.9414 176.48 72.3164C177.584 71.6816 178.893 71.3643 180.406 71.3643C181.9 71.3643 183.16 71.6084 184.186 72.0967C185.221 72.5752 186.002 73.2686 186.529 74.1768C187.066 75.0752 187.335 76.1494 187.335 77.3994C187.335 78.1025 187.223 78.791 186.998 79.4648C186.773 80.1289 186.451 80.793 186.031 81.457C185.621 82.1113 185.123 82.7754 184.537 83.4492C183.951 84.123 183.302 84.8213 182.589 85.5439L178.883 89.7041H188.023ZM205.016 80.4609V84.1523C205.016 85.7539 204.845 87.1357 204.503 88.2979C204.161 89.4502 203.668 90.3975 203.023 91.1396C202.389 91.8721 201.632 92.4141 200.753 92.7656C199.874 93.1172 198.897 93.293 197.823 93.293C196.964 93.293 196.163 93.1855 195.421 92.9707C194.679 92.7461 194.01 92.3994 193.414 91.9307C192.828 91.4619 192.32 90.8711 191.891 90.1582C191.471 89.4355 191.148 88.5762 190.924 87.5801C190.699 86.584 190.587 85.4414 190.587 84.1523V80.4609C190.587 78.8594 190.758 77.4873 191.1 76.3447C191.451 75.1924 191.944 74.25 192.579 73.5176C193.224 72.7852 193.985 72.248 194.864 71.9062C195.743 71.5547 196.72 71.3789 197.794 71.3789C198.653 71.3789 199.449 71.4912 200.182 71.7158C200.924 71.9307 201.593 72.2676 202.188 72.7266C202.784 73.1855 203.292 73.7764 203.712 74.499C204.132 75.2119 204.454 76.0664 204.679 77.0625C204.903 78.0488 205.016 79.1816 205.016 80.4609ZM200.782 84.709V79.8896C200.782 79.1182 200.738 78.4443 200.65 77.8682C200.572 77.292 200.45 76.8037 200.284 76.4033C200.118 75.9932 199.913 75.6611 199.669 75.4072C199.425 75.1533 199.146 74.9678 198.834 74.8506C198.521 74.7334 198.175 74.6748 197.794 74.6748C197.315 74.6748 196.891 74.7676 196.52 74.9531C196.158 75.1387 195.851 75.4365 195.597 75.8467C195.343 76.2471 195.147 76.7842 195.011 77.458C194.884 78.1221 194.82 78.9326 194.82 79.8896V84.709C194.82 85.4805 194.859 86.1592 194.938 86.7451C195.025 87.3311 195.152 87.834 195.318 88.2539C195.494 88.6641 195.699 89.001 195.934 89.2646C196.178 89.5186 196.456 89.7041 196.769 89.8213C197.091 89.9385 197.442 89.9971 197.823 89.9971C198.292 89.9971 198.707 89.9043 199.068 89.7188C199.439 89.5234 199.752 89.2207 200.006 88.8105C200.27 88.3906 200.465 87.8438 200.592 87.1699C200.719 86.4961 200.782 85.6758 200.782 84.709ZM222.477 89.7041V93H207.887V90.1875L214.786 82.79C215.479 82.0186 216.026 81.3398 216.427 80.7539C216.827 80.1582 217.115 79.626 217.291 79.1572C217.477 78.6787 217.569 78.2246 217.569 77.7949C217.569 77.1504 217.462 76.5986 217.247 76.1396C217.032 75.6709 216.715 75.3096 216.295 75.0557C215.885 74.8018 215.377 74.6748 214.771 74.6748C214.127 74.6748 213.57 74.8311 213.102 75.1436C212.643 75.4561 212.291 75.8906 212.047 76.4473C211.812 77.0039 211.695 77.6338 211.695 78.3369H207.462C207.462 77.0674 207.765 75.9053 208.37 74.8506C208.976 73.7861 209.83 72.9414 210.934 72.3164C212.037 71.6816 213.346 71.3643 214.859 71.3643C216.354 71.3643 217.613 71.6084 218.639 72.0967C219.674 72.5752 220.455 73.2686 220.982 74.1768C221.52 75.0752 221.788 76.1494 221.788 77.3994C221.788 78.1025 221.676 78.791 221.451 79.4648C221.227 80.1289 220.904 80.793 220.484 81.457C220.074 82.1113 219.576 82.7754 218.99 83.4492C218.404 84.123 217.755 84.8213 217.042 85.5439L213.336 89.7041H222.477ZM239.703 89.7041V93H225.113V90.1875L232.013 82.79C232.706 82.0186 233.253 81.3398 233.653 80.7539C234.054 80.1582 234.342 79.626 234.518 79.1572C234.703 78.6787 234.796 78.2246 234.796 77.7949C234.796 77.1504 234.688 76.5986 234.474 76.1396C234.259 75.6709 233.941 75.3096 233.521 75.0557C233.111 74.8018 232.604 74.6748 231.998 74.6748C231.354 74.6748 230.797 74.8311 230.328 75.1436C229.869 75.4561 229.518 75.8906 229.273 76.4473C229.039 77.0039 228.922 77.6338 228.922 78.3369H224.688C224.688 77.0674 224.991 75.9053 225.597 74.8506C226.202 73.7861 227.057 72.9414 228.16 72.3164C229.264 71.6816 230.572 71.3643 232.086 71.3643C233.58 71.3643 234.84 71.6084 235.865 72.0967C236.9 72.5752 237.682 73.2686 238.209 74.1768C238.746 75.0752 239.015 76.1494 239.015 77.3994C239.015 78.1025 238.902 78.791 238.678 79.4648C238.453 80.1289 238.131 80.793 237.711 81.457C237.301 82.1113 236.803 82.7754 236.217 83.4492C235.631 84.123 234.981 84.8213 234.269 85.5439L230.562 89.7041H239.703Z" fill="url(#paint0_linear_122_239)"/>
<defs>
<linearGradient id="paint0_linear_122_239" x1="164" y1="26" x2="164" y2="102" gradientUnits="userSpaceOnUse">
<stop stop-color="white"/>
<stop offset="1" stop-color="#D9D9D9" stop-opacity="0.8"/>
</linearGradient>
</defs>
</svg>
